<svg xmlns="http://www.w3.org/2000/svg" width="384" height="158.707" viewBox="0 0 384 158.707">
  <g id="Grupo_223729" data-name="Grupo 223729" transform="translate(-933 -2768.646)">
    <path id="Trazado_202977" data-name="Trazado 202977" d="M8.955,10.283a6.107,6.107,0,0,1-.506,2.567A3.825,3.825,0,0,1,7,14.545a3.977,3.977,0,0,1-2.164.591,3.986,3.986,0,0,1-2.157-.591A3.884,3.884,0,0,1,1.22,12.86,5.915,5.915,0,0,1,.7,10.338V9.777a6.054,6.054,0,0,1,.516-2.57A3.879,3.879,0,0,1,2.669,5.5,3.964,3.964,0,0,1,4.826,4.91a4,4,0,0,1,2.157.584A3.83,3.83,0,0,1,8.436,7.176a6.041,6.041,0,0,1,.52,2.553Zm-1.729-.52A4.351,4.351,0,0,0,6.6,7.228a2.046,2.046,0,0,0-1.774-.882,2.04,2.04,0,0,0-1.753.878,4.267,4.267,0,0,0-.646,2.485v.574a4.318,4.318,0,0,0,.639,2.536,2.058,2.058,0,0,0,1.774.9,2.034,2.034,0,0,0,1.767-.875,4.411,4.411,0,0,0,.619-2.557Zm5.947.273L14.581,7.6h1.846l-2.263,3.644L16.5,15H14.67l-1.477-2.529L11.724,15H9.878l2.338-3.753L9.96,7.6h1.832ZM19.346,15H17.685V7.6h1.661ZM19.031,4.548h1.894L19.031,6.619l-1.333,0Zm1.914,6.7a4.326,4.326,0,0,1,.81-2.751,2.6,2.6,0,0,1,2.15-1.029,2.436,2.436,0,0,1,1.989.882L25.97,7.6h1.5v7.171a2.981,2.981,0,0,1-.906,2.3,3.45,3.45,0,0,1-2.444.841,3.939,3.939,0,0,1-1.589-.338,2.824,2.824,0,0,1-1.179-.885l.786-1a2.374,2.374,0,0,0,1.887.909,1.835,1.835,0,0,0,1.306-.448,1.716,1.716,0,0,0,.479-1.316v-.5a2.446,2.446,0,0,1-1.914.8A2.594,2.594,0,0,1,21.769,14.1,4.466,4.466,0,0,1,20.945,11.247Zm1.654.144a2.978,2.978,0,0,0,.455,1.753,1.462,1.462,0,0,0,1.261.639,1.6,1.6,0,0,0,1.49-.861V9.668a1.576,1.576,0,0,0-1.477-.841,1.467,1.467,0,0,0-1.275.649A3.334,3.334,0,0,0,22.6,11.391Zm9.83,3.746a3.437,3.437,0,0,1-2.56-.995,3.608,3.608,0,0,1-.981-2.649v-.205a4.438,4.438,0,0,1,.427-1.979,3.252,3.252,0,0,1,1.2-1.357,3.172,3.172,0,0,1,1.723-.485,2.9,2.9,0,0,1,2.334.964,4.076,4.076,0,0,1,.824,2.728v.67H30.563a2.221,2.221,0,0,0,.612,1.449,1.837,1.837,0,0,0,1.35.533,2.249,2.249,0,0,0,1.859-.923l.9.854a2.99,2.99,0,0,1-1.186,1.029A3.713,3.713,0,0,1,32.43,15.137Zm-.2-6.337a1.4,1.4,0,0,0-1.1.479,2.48,2.48,0,0,0-.537,1.333h3.165v-.123a2.019,2.019,0,0,0-.444-1.261A1.388,1.388,0,0,0,32.231,8.8Zm6-1.2.048.854a2.659,2.659,0,0,1,2.153-.991q2.311,0,2.352,2.646V15H41.118V10.208a1.523,1.523,0,0,0-.3-1.042,1.28,1.28,0,0,0-.995-.338,1.6,1.6,0,0,0-1.5.909V15H36.661V7.6Zm5.934,3.63a4.361,4.361,0,0,1,.431-1.958,3.145,3.145,0,0,1,1.21-1.34,3.409,3.409,0,0,1,1.791-.468,3.231,3.231,0,0,1,2.43.964,3.791,3.791,0,0,1,1.008,2.557l.007.39a4.4,4.4,0,0,1-.42,1.955,3.108,3.108,0,0,1-1.2,1.333,3.434,3.434,0,0,1-1.808.472A3.209,3.209,0,0,1,45.1,14.094a3.993,3.993,0,0,1-.94-2.779Zm1.661.144a2.98,2.98,0,0,0,.472,1.788,1.533,1.533,0,0,0,1.313.646,1.517,1.517,0,0,0,1.309-.656,3.292,3.292,0,0,0,.468-1.921A2.942,2.942,0,0,0,48.9,9.456a1.624,1.624,0,0,0-2.6-.01A3.23,3.23,0,0,0,45.821,11.377Z" transform="translate(944 2825.6)" fill="#12263f"/>
    <path id="Trazado_202978" data-name="Trazado 202978" d="M8.907,15H7.178L2.741,7.938V15H1.012V5.047H2.741l4.45,7.089V5.047H8.907Zm3.65,0H10.9V7.6h1.661ZM10.794,5.683a.882.882,0,0,1,.243-.636.917.917,0,0,1,.694-.253.928.928,0,0,1,.7.253.875.875,0,0,1,.246.636.855.855,0,0,1-.246.625.935.935,0,0,1-.7.25.924.924,0,0,1-.694-.25A.861.861,0,0,1,10.794,5.683Zm5.653.123V7.6h1.306v1.23H16.447v4.129a.909.909,0,0,0,.167.612.777.777,0,0,0,.6.188,2.559,2.559,0,0,0,.581-.068v1.285a4.091,4.091,0,0,1-1.094.157q-1.914,0-1.914-2.112V8.834H13.569V7.6h1.217v-1.8Zm6.446,3.315a4.111,4.111,0,0,0-.677-.055,1.524,1.524,0,0,0-1.538.875V15H19.018V7.6H20.6l.041.827a1.872,1.872,0,0,1,1.668-.964,1.555,1.555,0,0,1,.588.1Zm.738,2.112a4.361,4.361,0,0,1,.431-1.958,3.145,3.145,0,0,1,1.21-1.34,3.409,3.409,0,0,1,1.791-.468,3.231,3.231,0,0,1,2.43.964A3.791,3.791,0,0,1,30.5,10.987l.007.39a4.4,4.4,0,0,1-.42,1.955,3.108,3.108,0,0,1-1.2,1.333,3.434,3.434,0,0,1-1.808.472,3.209,3.209,0,0,1-2.505-1.042,3.993,3.993,0,0,1-.94-2.779Zm1.661.144a2.98,2.98,0,0,0,.472,1.788,1.533,1.533,0,0,0,1.313.646,1.517,1.517,0,0,0,1.309-.656,3.292,3.292,0,0,0,.468-1.921,2.942,2.942,0,0,0-.482-1.777,1.624,1.624,0,0,0-2.6-.01A3.23,3.23,0,0,0,25.293,11.377ZM27.521,4.5h1.894L27.521,6.571l-1.333,0Zm4.1,6.747a4.326,4.326,0,0,1,.81-2.751,2.6,2.6,0,0,1,2.15-1.029,2.436,2.436,0,0,1,1.989.882l.075-.745h1.5v7.171a2.981,2.981,0,0,1-.906,2.3,3.45,3.45,0,0,1-2.444.841,3.939,3.939,0,0,1-1.589-.338,2.824,2.824,0,0,1-1.179-.885l.786-1A2.374,2.374,0,0,0,34.7,16.6,1.835,1.835,0,0,0,36,16.152a1.716,1.716,0,0,0,.479-1.316v-.5a2.446,2.446,0,0,1-1.914.8A2.594,2.594,0,0,1,32.447,14.1,4.466,4.466,0,0,1,31.623,11.247Zm1.654.144a2.978,2.978,0,0,0,.455,1.753,1.462,1.462,0,0,0,1.261.639,1.6,1.6,0,0,0,1.49-.861V9.668a1.576,1.576,0,0,0-1.477-.841,1.467,1.467,0,0,0-1.275.649A3.334,3.334,0,0,0,33.277,11.391Zm9.83,3.746a3.437,3.437,0,0,1-2.56-.995,3.608,3.608,0,0,1-.981-2.649v-.205a4.438,4.438,0,0,1,.427-1.979,3.252,3.252,0,0,1,1.2-1.357,3.172,3.172,0,0,1,1.723-.485,2.9,2.9,0,0,1,2.334.964,4.076,4.076,0,0,1,.824,2.728v.67H41.241a2.221,2.221,0,0,0,.612,1.449,1.837,1.837,0,0,0,1.35.533,2.249,2.249,0,0,0,1.859-.923l.9.854a2.99,2.99,0,0,1-1.186,1.029A3.713,3.713,0,0,1,43.107,15.137Zm-.2-6.337a1.4,1.4,0,0,0-1.1.479,2.48,2.48,0,0,0-.537,1.333h3.165v-.123a2.019,2.019,0,0,0-.444-1.261A1.388,1.388,0,0,0,42.909,8.8Zm6-1.2.048.854a2.659,2.659,0,0,1,2.153-.991q2.311,0,2.352,2.646V15H51.8V10.208a1.523,1.523,0,0,0-.3-1.042,1.28,1.28,0,0,0-.995-.338,1.6,1.6,0,0,0-1.5.909V15H47.339V7.6Zm5.934,3.63a4.361,4.361,0,0,1,.431-1.958,3.145,3.145,0,0,1,1.21-1.34,3.409,3.409,0,0,1,1.791-.468,3.231,3.231,0,0,1,2.43.964,3.791,3.791,0,0,1,1.008,2.557l.007.39a4.4,4.4,0,0,1-.42,1.955,3.108,3.108,0,0,1-1.2,1.333,3.434,3.434,0,0,1-1.808.472,3.209,3.209,0,0,1-2.505-1.042,3.993,3.993,0,0,1-.94-2.779Zm1.661.144a2.98,2.98,0,0,0,.472,1.788,1.533,1.533,0,0,0,1.313.646,1.517,1.517,0,0,0,1.309-.656,3.292,3.292,0,0,0,.468-1.921,2.942,2.942,0,0,0-.482-1.777,1.624,1.624,0,0,0-2.6-.01A3.23,3.23,0,0,0,56.5,11.377Zm12.694,1.244L70.7,7.6h1.771l-2.939,8.518a2.389,2.389,0,0,1-2.3,1.866,2.961,2.961,0,0,1-.8-.124V16.572l.314.021a1.617,1.617,0,0,0,.947-.229,1.517,1.517,0,0,0,.5-.768l.239-.635L65.837,7.6h1.791Zm7.424-1.374a4.326,4.326,0,0,1,.81-2.751,2.6,2.6,0,0,1,2.15-1.029,2.436,2.436,0,0,1,1.989.882l.075-.745h1.5v7.171a2.981,2.981,0,0,1-.906,2.3,3.45,3.45,0,0,1-2.444.841,3.939,3.939,0,0,1-1.589-.338,2.824,2.824,0,0,1-1.179-.885l.786-1a2.374,2.374,0,0,0,1.887.909A1.835,1.835,0,0,0,81,16.152a1.716,1.716,0,0,0,.479-1.316v-.5a2.446,2.446,0,0,1-1.914.8A2.594,2.594,0,0,1,77.441,14.1,4.466,4.466,0,0,1,76.617,11.247Zm1.654.144a2.978,2.978,0,0,0,.455,1.753,1.462,1.462,0,0,0,1.261.639,1.6,1.6,0,0,0,1.49-.861V9.668A1.576,1.576,0,0,0,80,8.827a1.467,1.467,0,0,0-1.275.649A3.334,3.334,0,0,0,78.271,11.391ZM89.264,15a2.564,2.564,0,0,1-.191-.69,2.794,2.794,0,0,1-3.76.191,2.034,2.034,0,0,1-.7-1.572,2.1,2.1,0,0,1,.878-1.815A4.257,4.257,0,0,1,88,10.481h1.019V10a1.3,1.3,0,0,0-.321-.919,1.274,1.274,0,0,0-.978-.345,1.463,1.463,0,0,0-.93.284.878.878,0,0,0-.362.721H84.766a1.844,1.844,0,0,1,.4-1.138,2.687,2.687,0,0,1,1.1-.831,3.854,3.854,0,0,1,1.548-.3,3.1,3.1,0,0,1,2.071.653,2.328,2.328,0,0,1,.793,1.835v3.336a3.781,3.781,0,0,0,.28,1.593V15Zm-1.825-1.2a1.89,1.89,0,0,0,.926-.239,1.6,1.6,0,0,0,.653-.643V11.527h-.9a2.449,2.449,0,0,0-1.388.321,1.041,1.041,0,0,0-.465.909.971.971,0,0,0,.318.762A1.231,1.231,0,0,0,87.438,13.8Zm9.126-.813a.753.753,0,0,0-.366-.677,3.89,3.89,0,0,0-1.213-.41,6.238,6.238,0,0,1-1.415-.451,1.889,1.889,0,0,1-1.244-1.743,1.969,1.969,0,0,1,.807-1.6,3.189,3.189,0,0,1,2.051-.643,3.318,3.318,0,0,1,2.143.656,2.082,2.082,0,0,1,.817,1.7H96.482a1.024,1.024,0,0,0-.355-.8,1.362,1.362,0,0,0-.943-.318,1.472,1.472,0,0,0-.892.253.8.8,0,0,0-.345.677.673.673,0,0,0,.321.595,4.418,4.418,0,0,0,1.3.427,6.148,6.148,0,0,1,1.535.513,2.173,2.173,0,0,1,.827.714A1.822,1.822,0,0,1,98.2,12.9a1.927,1.927,0,0,1-.827,1.617,3.527,3.527,0,0,1-2.167.619,3.825,3.825,0,0,1-1.62-.328,2.666,2.666,0,0,1-1.107-.9,2.136,2.136,0,0,1-.4-1.237h1.613a1.171,1.171,0,0,0,.444.906,1.727,1.727,0,0,0,1.087.318,1.68,1.68,0,0,0,1-.25A.772.772,0,0,0,96.564,12.99Zm6.337,2.146a3.437,3.437,0,0,1-2.56-.995,3.608,3.608,0,0,1-.981-2.649v-.205a4.438,4.438,0,0,1,.427-1.979,3.252,3.252,0,0,1,1.2-1.357,3.172,3.172,0,0,1,1.723-.485,2.9,2.9,0,0,1,2.334.964,4.076,4.076,0,0,1,.824,2.728v.67h-4.833a2.221,2.221,0,0,0,.612,1.449,1.837,1.837,0,0,0,1.35.533,2.249,2.249,0,0,0,1.859-.923l.9.854a2.99,2.99,0,0,1-1.186,1.029A3.713,3.713,0,0,1,102.9,15.137ZM102.7,8.8a1.4,1.4,0,0,0-1.1.479,2.48,2.48,0,0,0-.537,1.333h3.165v-.123a2.019,2.019,0,0,0-.444-1.261A1.388,1.388,0,0,0,102.7,8.8Zm8.6,4.19a.753.753,0,0,0-.366-.677,3.89,3.89,0,0,0-1.213-.41,6.238,6.238,0,0,1-1.415-.451,1.889,1.889,0,0,1-1.244-1.743,1.969,1.969,0,0,1,.807-1.6,3.189,3.189,0,0,1,2.051-.643,3.318,3.318,0,0,1,2.143.656,2.082,2.082,0,0,1,.817,1.7h-1.661a1.024,1.024,0,0,0-.355-.8,1.362,1.362,0,0,0-.943-.318,1.472,1.472,0,0,0-.892.253.8.8,0,0,0-.345.677.673.673,0,0,0,.321.595,4.418,4.418,0,0,0,1.3.427,6.148,6.148,0,0,1,1.535.513,2.173,2.173,0,0,1,.827.714,1.822,1.822,0,0,1,.27,1.012,1.927,1.927,0,0,1-.827,1.617,3.527,3.527,0,0,1-2.167.619,3.825,3.825,0,0,1-1.62-.328,2.666,2.666,0,0,1-1.107-.9,2.136,2.136,0,0,1-.4-1.237h1.613a1.171,1.171,0,0,0,.444.906,1.727,1.727,0,0,0,1.087.318,1.68,1.68,0,0,0,1-.25A.772.772,0,0,0,111.3,12.99ZM2.618,35H.957V27.6H2.618ZM.854,25.683a.882.882,0,0,1,.243-.636.917.917,0,0,1,.694-.253.928.928,0,0,1,.7.253.875.875,0,0,1,.246.636.855.855,0,0,1-.246.625.935.935,0,0,1-.7.25.924.924,0,0,1-.694-.25A.861.861,0,0,1,.854,25.683ZM5.968,27.6l.048.854a2.659,2.659,0,0,1,2.153-.991q2.311,0,2.352,2.646V35H8.859V30.208a1.523,1.523,0,0,0-.3-1.042,1.28,1.28,0,0,0-.995-.338,1.6,1.6,0,0,0-1.5.909V35H4.4V27.6Zm9.5,7.533a3.437,3.437,0,0,1-2.56-.995,3.608,3.608,0,0,1-.981-2.649v-.205a4.438,4.438,0,0,1,.427-1.979,3.252,3.252,0,0,1,1.2-1.357,3.172,3.172,0,0,1,1.723-.485,2.9,2.9,0,0,1,2.334.964,4.076,4.076,0,0,1,.824,2.728v.67H13.6a2.221,2.221,0,0,0,.612,1.449,1.837,1.837,0,0,0,1.35.533,2.249,2.249,0,0,0,1.859-.923l.9.854a2.99,2.99,0,0,1-1.186,1.029A3.713,3.713,0,0,1,15.47,35.137Zm-.2-6.337a1.4,1.4,0,0,0-1.1.479,2.48,2.48,0,0,0-.537,1.333H16.8v-.123a2.019,2.019,0,0,0-.444-1.261A1.388,1.388,0,0,0,15.271,28.8Zm8.326.321a4.111,4.111,0,0,0-.677-.055,1.524,1.524,0,0,0-1.538.875V35H19.722V27.6h1.586l.041.827a1.872,1.872,0,0,1,1.668-.964,1.555,1.555,0,0,1,.588.1Zm3.473-3.315v1.8h1.306v1.23H27.07v4.129a.909.909,0,0,0,.167.612.777.777,0,0,0,.6.188,2.559,2.559,0,0,0,.581-.068v1.285a4.091,4.091,0,0,1-1.094.157q-1.914,0-1.914-2.112v-4.19H24.192V27.6h1.217v-1.8ZM32.9,35.137a3.437,3.437,0,0,1-2.56-.995,3.608,3.608,0,0,1-.981-2.649v-.205a4.438,4.438,0,0,1,.427-1.979,3.252,3.252,0,0,1,1.2-1.357,3.172,3.172,0,0,1,1.723-.485,2.9,2.9,0,0,1,2.334.964,4.076,4.076,0,0,1,.824,2.728v.67H31.035a2.221,2.221,0,0,0,.612,1.449,1.837,1.837,0,0,0,1.35.533,2.249,2.249,0,0,0,1.859-.923l.9.854a2.99,2.99,0,0,1-1.186,1.029A3.713,3.713,0,0,1,32.9,35.137ZM32.7,28.8a1.4,1.4,0,0,0-1.1.479,2.48,2.48,0,0,0-.537,1.333h3.165v-.123a2.019,2.019,0,0,0-.444-1.261A1.388,1.388,0,0,0,32.7,28.8Zm8.6,4.19a.753.753,0,0,0-.366-.677,3.89,3.89,0,0,0-1.213-.41,6.238,6.238,0,0,1-1.415-.451,1.889,1.889,0,0,1-1.244-1.743,1.969,1.969,0,0,1,.807-1.6,3.189,3.189,0,0,1,2.051-.643,3.318,3.318,0,0,1,2.143.656,2.082,2.082,0,0,1,.817,1.7H41.221a1.024,1.024,0,0,0-.355-.8,1.362,1.362,0,0,0-.943-.318,1.472,1.472,0,0,0-.892.253.8.8,0,0,0-.345.677.673.673,0,0,0,.321.595,4.418,4.418,0,0,0,1.3.427,6.148,6.148,0,0,1,1.535.513,2.173,2.173,0,0,1,.827.714,1.822,1.822,0,0,1,.27,1.012,1.927,1.927,0,0,1-.827,1.617,3.527,3.527,0,0,1-2.167.619,3.825,3.825,0,0,1-1.62-.328,2.666,2.666,0,0,1-1.107-.9,2.136,2.136,0,0,1-.4-1.237h1.613a1.17,1.17,0,0,0,.444.906,1.727,1.727,0,0,0,1.087.318,1.68,1.68,0,0,0,1-.25A.772.772,0,0,0,41.3,32.99Z" transform="translate(944 2878.35)" fill="#12263f"/>
    <g id="Trazado_202979" data-name="Trazado 202979" transform="translate(933 2768.649)" fill="none">
      <path d="M0,0H384V35H0Z" stroke="none"/>
      <path d="M 1 1 L 1 34 L 383 34 L 383 1 L 1 1 M 0 0 L 384 0 L 384 35 L 0 35 L 0 0 Z" stroke="none" fill="#e53935"/>
    </g>
    <g id="Trazado_202980" data-name="Trazado 202980" transform="translate(933 2802.35)" fill="none">
      <path d="M0,0H384V62.5H0Z" stroke="none"/>
      <path d="M 1 1 L 1 61.5 L 383 61.5 L 383 1 L 1 1 M 0 0 L 384 0 L 384 62.5 L 0 62.5 L 0 0 Z" stroke="none" fill="#e53935"/>
    </g>
    <g id="Trazado_202981" data-name="Trazado 202981" transform="translate(933 2863.85)" fill="none">
      <path d="M0,0H384V63.5H0Z" stroke="none"/>
      <path d="M 1 1 L 1 62.5 L 383 62.5 L 383 1 L 1 1 M 0 0 L 384 0 L 384 63.5 L 0 63.5 L 0 0 Z" stroke="none" fill="#e53935"/>
    </g>
    <path id="Trazado_191025" data-name="Trazado 191025" d="M1,0,0,158.7" transform="translate(1081.435 2768.649)" fill="none" stroke="#e53935" stroke-width="1"/>
    <path id="Trazado_191765" data-name="Trazado 191765" d="M1,0,0,158.7" transform="translate(1198 2768.649)" fill="none" stroke="#e53935" stroke-width="1"/>
    <path id="Trazado_202982" data-name="Trazado 202982" d="M7.438,15H.745V13.858l3.315-3.616A8.256,8.256,0,0,0,5.083,8.906a2.165,2.165,0,0,0,.3-1.077,1.636,1.636,0,0,0-.4-1.148A1.387,1.387,0,0,0,3.91,6.243a1.6,1.6,0,0,0-1.251.492,1.936,1.936,0,0,0-.444,1.347H.554A3.256,3.256,0,0,1,.967,6.445,2.848,2.848,0,0,1,2.15,5.313a3.764,3.764,0,0,1,1.774-.4,3.367,3.367,0,0,1,2.287.728,2.527,2.527,0,0,1,.837,2.013,3.416,3.416,0,0,1-.42,1.562A8.882,8.882,0,0,1,5.25,11.069l-2.434,2.6H7.438Zm3.186-5.735h1.012a1.811,1.811,0,0,0,1.213-.4A1.414,1.414,0,0,0,13.3,7.74a1.541,1.541,0,0,0-.373-1.1,1.5,1.5,0,0,0-1.138-.393,1.586,1.586,0,0,0-1.1.386,1.291,1.291,0,0,0-.431,1.008H8.593A2.514,2.514,0,0,1,9,6.243a2.733,2.733,0,0,1,1.135-.981,3.7,3.7,0,0,1,1.63-.352,3.423,3.423,0,0,1,2.341.749,2.627,2.627,0,0,1,.851,2.082A2.115,2.115,0,0,1,14.53,9a2.679,2.679,0,0,1-1.1.892,2.442,2.442,0,0,1,1.248.882,2.414,2.414,0,0,1,.427,1.436,2.673,2.673,0,0,1-.919,2.133,3.57,3.57,0,0,1-2.417.793,3.543,3.543,0,0,1-2.352-.766A2.521,2.521,0,0,1,8.5,12.334h1.661A1.39,1.39,0,0,0,10.6,13.4a1.672,1.672,0,0,0,1.186.41A1.725,1.725,0,0,0,13,13.4a1.539,1.539,0,0,0,.444-1.189A1.554,1.554,0,0,0,12.981,11a1.987,1.987,0,0,0-1.381-.424h-.978ZM17,17.242l-.9-.533a4.83,4.83,0,0,0,.543-1.083,3.233,3.233,0,0,0,.154-.94V13.394h1.5l-.007,1.2a3.334,3.334,0,0,1-.366,1.453A3.609,3.609,0,0,1,17,17.242ZM24.233,15H22.579V7l-2.44.832V6.441l3.883-1.429h.212Zm3.9-4.936.54-5.018h5.346V6.482H30.058l-.273,2.379a3.073,3.073,0,0,1,1.559-.4,2.773,2.773,0,0,1,2.211.909,3.6,3.6,0,0,1,.79,2.447,3.316,3.316,0,0,1-.875,2.417,3.193,3.193,0,0,1-2.4.9,3.345,3.345,0,0,1-2.266-.776,2.805,2.805,0,0,1-.974-2.047h1.606a1.754,1.754,0,0,0,.52,1.111,1.58,1.58,0,0,0,1.107.386,1.428,1.428,0,0,0,1.193-.547,2.36,2.36,0,0,0,.427-1.49,2.086,2.086,0,0,0-.472-1.439,1.65,1.65,0,0,0-1.3-.53,1.814,1.814,0,0,0-1.449.588Z" transform="translate(1101 2825.6)" fill="#12263f"/>
    <path id="Trazado_202983" data-name="Trazado 202983" d="M7.438,15H.745V13.858l3.315-3.616A8.256,8.256,0,0,0,5.083,8.906a2.165,2.165,0,0,0,.3-1.077,1.636,1.636,0,0,0-.4-1.148A1.387,1.387,0,0,0,3.91,6.243a1.6,1.6,0,0,0-1.251.492,1.936,1.936,0,0,0-.444,1.347H.554A3.256,3.256,0,0,1,.967,6.445,2.848,2.848,0,0,1,2.15,5.313a3.764,3.764,0,0,1,1.774-.4,3.367,3.367,0,0,1,2.287.728,2.527,2.527,0,0,1,.837,2.013,3.416,3.416,0,0,1-.42,1.562A8.882,8.882,0,0,1,5.25,11.069l-2.434,2.6H7.438Zm7.752-4.19a5.428,5.428,0,0,1-.8,3.237,2.837,2.837,0,0,1-2.444,1.09,2.874,2.874,0,0,1-2.43-1.063,5.2,5.2,0,0,1-.837-3.148V9.2a5.346,5.346,0,0,1,.8-3.22A2.863,2.863,0,0,1,11.929,4.91a2.879,2.879,0,0,1,2.437,1.046,5.183,5.183,0,0,1,.824,3.131ZM13.528,8.95A4.211,4.211,0,0,0,13.146,6.9a1.307,1.307,0,0,0-1.217-.653,1.306,1.306,0,0,0-1.2.619,3.892,3.892,0,0,0-.4,1.931v2.256a4.32,4.32,0,0,0,.39,2.078,1.309,1.309,0,0,0,1.224.684,1.286,1.286,0,0,0,1.183-.632,4.065,4.065,0,0,0,.4-1.979ZM17,17.242l-.9-.533a4.83,4.83,0,0,0,.543-1.083,3.233,3.233,0,0,0,.154-.94V13.394h1.5l-.007,1.2a3.334,3.334,0,0,1-.366,1.453A3.609,3.609,0,0,1,17,17.242Zm9-9.57a2.314,2.314,0,0,1-.376,1.3,2.608,2.608,0,0,1-1.025.9,2.84,2.84,0,0,1,1.2.991,2.5,2.5,0,0,1,.42,1.422,2.611,2.611,0,0,1-.889,2.082,3.488,3.488,0,0,1-2.365.769,3.5,3.5,0,0,1-2.375-.772,2.609,2.609,0,0,1-.892-2.078,2.529,2.529,0,0,1,.424-1.436,2.723,2.723,0,0,1,1.189-.978,2.593,2.593,0,0,1-1.015-.9,2.329,2.329,0,0,1-.373-1.3,2.589,2.589,0,0,1,.82-2.017,3.169,3.169,0,0,1,2.215-.745,3.179,3.179,0,0,1,2.222.745A2.589,2.589,0,0,1,26,7.672ZM24.562,12.2a1.641,1.641,0,0,0-.441-1.193,1.55,1.55,0,0,0-1.166-.455,1.533,1.533,0,0,0-1.159.451,1.653,1.653,0,0,0-.434,1.2,1.6,1.6,0,0,0,.427,1.169,1.82,1.82,0,0,0,2.352.014A1.606,1.606,0,0,0,24.562,12.2ZM24.35,7.733a1.545,1.545,0,0,0-.376-1.07,1.445,1.445,0,0,0-2.017-.021,1.545,1.545,0,0,0-.369,1.09A1.539,1.539,0,0,0,21.96,8.82a1.462,1.462,0,0,0,2.017,0A1.539,1.539,0,0,0,24.35,7.733Zm8.962,3.719h1.237v1.333H33.312V15H31.65V12.785h-4.3L27.3,11.773,31.6,5.047h1.716Zm-4.266,0h2.6V7.3l-.123.219Z" transform="translate(1216 2825.6)" fill="#12263f"/>
    <path id="Trazado_202984" data-name="Trazado 202984" d="M7.369,5.97,3.391,15H1.647L5.619,6.38H.472V5.047h6.9ZM13.87,5V6.373h-.205a3.3,3.3,0,0,0-2.229.766,3.2,3.2,0,0,0-.991,2.112,2.7,2.7,0,0,1,2.044-.841,2.548,2.548,0,0,1,2.082.93,3.662,3.662,0,0,1,.762,2.4,3.423,3.423,0,0,1-.892,2.458,3.079,3.079,0,0,1-2.341.94,3.008,3.008,0,0,1-2.417-1.1,4.329,4.329,0,0,1-.926-2.885v-.567a6.092,6.092,0,0,1,1.275-4.1A4.571,4.571,0,0,1,13.7,5ZM12.086,9.75a1.749,1.749,0,0,0-1,.308,1.8,1.8,0,0,0-.667.82v.506a2.98,2.98,0,0,0,.465,1.76,1.418,1.418,0,0,0,1.2.653,1.4,1.4,0,0,0,1.169-.554,2.306,2.306,0,0,0,.431-1.456,2.339,2.339,0,0,0-.437-1.47A1.4,1.4,0,0,0,12.086,9.75ZM17,17.242l-.9-.533a4.83,4.83,0,0,0,.543-1.083,3.233,3.233,0,0,0,.154-.94V13.394h1.5l-.007,1.2a3.334,3.334,0,0,1-.366,1.453A3.609,3.609,0,0,1,17,17.242Zm9-9.57a2.314,2.314,0,0,1-.376,1.3,2.608,2.608,0,0,1-1.025.9,2.84,2.84,0,0,1,1.2.991,2.5,2.5,0,0,1,.42,1.422,2.611,2.611,0,0,1-.889,2.082,3.488,3.488,0,0,1-2.365.769,3.5,3.5,0,0,1-2.375-.772,2.609,2.609,0,0,1-.892-2.078,2.529,2.529,0,0,1,.424-1.436,2.723,2.723,0,0,1,1.189-.978,2.593,2.593,0,0,1-1.015-.9,2.329,2.329,0,0,1-.373-1.3,2.589,2.589,0,0,1,.82-2.017,3.169,3.169,0,0,1,2.215-.745,3.179,3.179,0,0,1,2.222.745A2.589,2.589,0,0,1,26,7.672ZM24.562,12.2a1.641,1.641,0,0,0-.441-1.193,1.55,1.55,0,0,0-1.166-.455,1.533,1.533,0,0,0-1.159.451,1.653,1.653,0,0,0-.434,1.2,1.6,1.6,0,0,0,.427,1.169,1.82,1.82,0,0,0,2.352.014A1.606,1.606,0,0,0,24.562,12.2ZM24.35,7.733a1.545,1.545,0,0,0-.376-1.07,1.445,1.445,0,0,0-2.017-.021,1.545,1.545,0,0,0-.369,1.09A1.539,1.539,0,0,0,21.96,8.82a1.462,1.462,0,0,0,2.017,0A1.539,1.539,0,0,0,24.35,7.733Zm3.787,2.331.54-5.018h5.346V6.482H30.058l-.273,2.379a3.073,3.073,0,0,1,1.559-.4,2.773,2.773,0,0,1,2.211.909,3.6,3.6,0,0,1,.79,2.447,3.316,3.316,0,0,1-.875,2.417,3.193,3.193,0,0,1-2.4.9,3.345,3.345,0,0,1-2.266-.776,2.805,2.805,0,0,1-.974-2.047h1.606a1.754,1.754,0,0,0,.52,1.111,1.58,1.58,0,0,0,1.107.386,1.428,1.428,0,0,0,1.193-.547,2.36,2.36,0,0,0,.427-1.49,2.086,2.086,0,0,0-.472-1.439,1.65,1.65,0,0,0-1.3-.53,1.814,1.814,0,0,0-1.449.588Z" transform="translate(1096.869 2888.35)" fill="#12263f"/>
    <path id="Trazado_202985" data-name="Trazado 202985" d="M7.369,5.97,3.391,15H1.647L5.619,6.38H.472V5.047h6.9Zm6.043,4.867a2.715,2.715,0,0,1-4.04-.038,3.61,3.61,0,0,1-.779-2.417,3.962,3.962,0,0,1,.4-1.784,2.956,2.956,0,0,1,1.128-1.244,3.2,3.2,0,0,1,1.7-.444A2.875,2.875,0,0,1,14.2,6.031a4.722,4.722,0,0,1,.882,3V9.5a6.133,6.133,0,0,1-1.217,4.108,4.58,4.58,0,0,1-3.63,1.436h-.2V13.667h.239a3.4,3.4,0,0,0,2.256-.708A2.949,2.949,0,0,0,13.412,10.837Zm-1.6-.417a1.676,1.676,0,0,0,.937-.287,1.892,1.892,0,0,0,.677-.793V8.69a3.118,3.118,0,0,0-.451-1.771,1.359,1.359,0,0,0-1.169-.67,1.343,1.343,0,0,0-1.145.591,2.486,2.486,0,0,0-.427,1.494,2.455,2.455,0,0,0,.431,1.511A1.364,1.364,0,0,0,11.813,10.42ZM17,17.242l-.9-.533a4.83,4.83,0,0,0,.543-1.083,3.233,3.233,0,0,0,.154-.94V13.394h1.5l-.007,1.2a3.334,3.334,0,0,1-.366,1.453A3.609,3.609,0,0,1,17,17.242ZM24.233,15H22.579V7l-2.44.832V6.441l3.883-1.429h.212ZM32.86,5V6.373h-.205a3.3,3.3,0,0,0-2.229.766,3.2,3.2,0,0,0-.991,2.112,2.7,2.7,0,0,1,2.044-.841,2.548,2.548,0,0,1,2.082.93,3.662,3.662,0,0,1,.762,2.4,3.423,3.423,0,0,1-.892,2.458,3.079,3.079,0,0,1-2.341.94,3.008,3.008,0,0,1-2.417-1.1,4.329,4.329,0,0,1-.926-2.885v-.567a6.092,6.092,0,0,1,1.275-4.1A4.571,4.571,0,0,1,32.689,5ZM31.076,9.75a1.749,1.749,0,0,0-1,.308,1.8,1.8,0,0,0-.667.82v.506a2.98,2.98,0,0,0,.465,1.76,1.418,1.418,0,0,0,1.2.653,1.4,1.4,0,0,0,1.169-.554,2.306,2.306,0,0,0,.431-1.456,2.339,2.339,0,0,0-.437-1.47A1.4,1.4,0,0,0,31.076,9.75Z" transform="translate(1214.5 2888.35)" fill="#12263f"/>
    <path id="Trazado_202986" data-name="Trazado 202986" d="M19.407,6.961a1.954,1.954,0,0,1,.6-1.49A2.255,2.255,0,0,1,21.622,4.9a2.258,2.258,0,0,1,1.62.564A2.005,2.005,0,0,1,23.836,7v.492a1.943,1.943,0,0,1-.595,1.483,2.247,2.247,0,0,1-1.606.561,2.308,2.308,0,0,1-1.617-.557,1.963,1.963,0,0,1-.612-1.528Zm1.483.525a.826.826,0,0,0,.2.574.7.7,0,0,0,.547.221q.718,0,.718-.91V6.963a.871.871,0,0,0-.191-.581.667.667,0,0,0-.54-.228.681.681,0,0,0-.533.221.867.867,0,0,0-.2.6Zm3.247,5.074a1.935,1.935,0,0,1,.6-1.49,2.275,2.275,0,0,1,1.61-.561,2.3,2.3,0,0,1,1.62.554,2,2,0,0,1,.6,1.545v.479a1.951,1.951,0,0,1-.595,1.49,2.257,2.257,0,0,1-1.613.561,2.308,2.308,0,0,1-1.617-.557,1.963,1.963,0,0,1-.612-1.528Zm1.477.525a.808.808,0,0,0,.219.56.693.693,0,0,0,.533.241.629.629,0,0,0,.718-.625l.007-.7a.836.836,0,0,0-.2-.581.772.772,0,0,0-1.066-.014.826.826,0,0,0-.212.56Zm-3.541,1.171L21,13.715l4.86-7.779,1.073.54Zm14.82.882a3.8,3.8,0,0,1-2.755-1.015,3.506,3.506,0,0,1-1.053-2.642v-.191a4.542,4.542,0,0,1,.42-2,3.076,3.076,0,0,1,1.227-1.343,3.7,3.7,0,0,1,1.914-.475,3.2,3.2,0,0,1,2.461.967,3.8,3.8,0,0,1,.9,2.7v.9H35.43a1.66,1.66,0,0,0,.54.978,1.607,1.607,0,0,0,1.08.355,2.07,2.07,0,0,0,1.709-.766l1.053,1.244a2.943,2.943,0,0,1-1.22.947A4.123,4.123,0,0,1,36.893,15.137Zm-.26-5.893q-1.012,0-1.2,1.34h2.324v-.178a1.141,1.141,0,0,0-.28-.858A1.115,1.115,0,0,0,36.633,9.244ZM43.052,7.6l.075.868a2.508,2.508,0,0,1,2.112-1,2.11,2.11,0,0,1,1.726.69,3.287,3.287,0,0,1,.591,2.078V15H45.247V10.331a1.248,1.248,0,0,0-.226-.824,1.044,1.044,0,0,0-.82-.263,1.1,1.1,0,0,0-1,.533V15h-2.3V7.6Zm16.133,3.753a4.46,4.46,0,0,1-.776,2.751,2.488,2.488,0,0,1-2.1,1.029,2.132,2.132,0,0,1-1.675-.745v3.452h-2.3V7.6h2.153l.068.684a2.132,2.132,0,0,1,1.743-.82,2.508,2.508,0,0,1,2.126,1.008,4.515,4.515,0,0,1,.759,2.772Zm-2.3-.144q0-1.969-1.148-1.969a1.084,1.084,0,0,0-1.094.588v2.912a1.119,1.119,0,0,0,1.107.615q1.1,0,1.135-1.9Zm6.9,3.924a3.8,3.8,0,0,1-2.755-1.015,3.506,3.506,0,0,1-1.053-2.642v-.191a4.542,4.542,0,0,1,.42-2,3.076,3.076,0,0,1,1.227-1.343,3.7,3.7,0,0,1,1.914-.475,3.2,3.2,0,0,1,2.461.967,3.8,3.8,0,0,1,.9,2.7v.9h-4.58a1.66,1.66,0,0,0,.54.978,1.607,1.607,0,0,0,1.08.355,2.07,2.07,0,0,0,1.709-.766L66.7,13.838a2.943,2.943,0,0,1-1.22.947A4.124,4.124,0,0,1,63.779,15.137Zm-.26-5.893q-1.012,0-1.2,1.34H64.64v-.178a1.141,1.141,0,0,0-.28-.858A1.115,1.115,0,0,0,63.519,9.244Zm8.176,3.678a.532.532,0,0,0-.308-.472,4.679,4.679,0,0,0-1.169-.369,5.33,5.33,0,0,1-1.422-.5,2.382,2.382,0,0,1-.854-.755A1.8,1.8,0,0,1,67.648,9.8a2.044,2.044,0,0,1,.841-1.678,3.464,3.464,0,0,1,2.2-.66,3.837,3.837,0,0,1,2.352.663,2.074,2.074,0,0,1,.889,1.743H71.62q0-.889-.937-.889a.928.928,0,0,0-.608.2.624.624,0,0,0-.246.5.573.573,0,0,0,.3.5,2.842,2.842,0,0,0,.96.314,8.3,8.3,0,0,1,1.159.294,2.105,2.105,0,0,1,1.668,2.058,1.937,1.937,0,0,1-.9,1.647,3.942,3.942,0,0,1-2.328.636,4.023,4.023,0,0,1-1.7-.342,2.835,2.835,0,0,1-1.162-.93,2.105,2.105,0,0,1-.417-1.237h2.153a.89.89,0,0,0,.342.749,1.406,1.406,0,0,0,.841.236,1.106,1.106,0,0,0,.708-.191A.612.612,0,0,0,71.695,12.922ZM74.7,11.233a4.366,4.366,0,0,1,.431-1.972,3.08,3.08,0,0,1,1.237-1.33,3.726,3.726,0,0,1,1.894-.465A3.4,3.4,0,0,1,80.882,8.5a3.948,3.948,0,0,1,.957,2.8v.082a3.83,3.83,0,0,1-.96,2.745,3.41,3.41,0,0,1-2.6,1.015,3.449,3.449,0,0,1-2.536-.947,3.7,3.7,0,0,1-1.032-2.567Zm2.3.144a2.752,2.752,0,0,0,.321,1.5,1.07,1.07,0,0,0,.95.479q1.23,0,1.258-1.894v-.232q0-1.989-1.271-1.989-1.155,0-1.251,1.716Z" transform="translate(1090 2777.229)" fill="#e53935"/>
    <path id="Trazado_202987" data-name="Trazado 202987" d="M7.519,6.961a1.954,1.954,0,0,1,.6-1.49A2.255,2.255,0,0,1,9.734,4.9a2.258,2.258,0,0,1,1.62.564A2.005,2.005,0,0,1,11.949,7v.492a1.943,1.943,0,0,1-.595,1.483,2.247,2.247,0,0,1-1.606.561,2.308,2.308,0,0,1-1.617-.557,1.963,1.963,0,0,1-.612-1.528ZM9,7.486a.826.826,0,0,0,.2.574.7.7,0,0,0,.547.221q.718,0,.718-.91V6.963a.871.871,0,0,0-.191-.581.667.667,0,0,0-.54-.228.681.681,0,0,0-.533.221.867.867,0,0,0-.2.6ZM12.25,12.56a1.935,1.935,0,0,1,.6-1.49,2.275,2.275,0,0,1,1.61-.561,2.3,2.3,0,0,1,1.62.554,2,2,0,0,1,.6,1.545v.479a1.951,1.951,0,0,1-.595,1.49,2.257,2.257,0,0,1-1.613.561,2.308,2.308,0,0,1-1.617-.557,1.963,1.963,0,0,1-.612-1.528Zm1.477.525a.808.808,0,0,0,.219.56.693.693,0,0,0,.533.241.629.629,0,0,0,.718-.625l.007-.7a.836.836,0,0,0-.2-.581.772.772,0,0,0-1.066-.014.826.826,0,0,0-.212.56Zm-3.541,1.171-1.073-.54,4.86-7.779,1.073.54Zm14.82.882a3.8,3.8,0,0,1-2.755-1.015A3.506,3.506,0,0,1,21.2,11.479v-.191a4.542,4.542,0,0,1,.42-2,3.076,3.076,0,0,1,1.227-1.343,3.7,3.7,0,0,1,1.914-.475,3.2,3.2,0,0,1,2.461.967,3.8,3.8,0,0,1,.9,2.7v.9h-4.58a1.66,1.66,0,0,0,.54.978,1.607,1.607,0,0,0,1.08.355,2.07,2.07,0,0,0,1.709-.766l1.053,1.244a2.943,2.943,0,0,1-1.22.947A4.124,4.124,0,0,1,25.005,15.137Zm-.26-5.893q-1.012,0-1.2,1.34h2.324v-.178a1.141,1.141,0,0,0-.28-.858A1.115,1.115,0,0,0,24.746,9.244ZM31.165,7.6l.075.868a2.508,2.508,0,0,1,2.112-1,2.11,2.11,0,0,1,1.726.69,3.287,3.287,0,0,1,.591,2.078V15H33.359V10.331a1.248,1.248,0,0,0-.226-.824,1.044,1.044,0,0,0-.82-.263,1.1,1.1,0,0,0-1,.533V15H29V7.6ZM43.38,12.259,44.549,7.6h2.427L44.563,15H42.211L39.8,7.6h2.434Zm3.89-1.025A4.366,4.366,0,0,1,47.7,9.261a3.08,3.08,0,0,1,1.237-1.33,3.726,3.726,0,0,1,1.894-.465A3.4,3.4,0,0,1,53.45,8.5a3.948,3.948,0,0,1,.957,2.8v.082a3.83,3.83,0,0,1-.96,2.745,3.41,3.41,0,0,1-2.6,1.015,3.449,3.449,0,0,1-2.536-.947,3.7,3.7,0,0,1-1.032-2.567Zm2.3.144a2.752,2.752,0,0,0,.321,1.5,1.07,1.07,0,0,0,.95.479q1.23,0,1.258-1.894v-.232q0-1.989-1.271-1.989-1.155,0-1.251,1.716ZM57.852,15H55.542V4.5h2.311Zm5.824-.8a2.375,2.375,0,0,1-1.976.937,2.329,2.329,0,0,1-1.842-.708,2.976,2.976,0,0,1-.625-2.034V7.6h2.3v4.806a.828.828,0,0,0,.923.95,1.2,1.2,0,0,0,1.128-.567V7.6H65.9V15h-2.16Zm5.667-6.6.075.868a2.543,2.543,0,0,1,2.112-1,1.872,1.872,0,0,1,1.894,1.114A2.462,2.462,0,0,1,75.6,7.467q2.249,0,2.311,2.721V15H75.6V10.331a1.41,1.41,0,0,0-.191-.827.815.815,0,0,0-.7-.26,1.091,1.091,0,0,0-1.019.608l.007.1V15H71.387V10.345A1.482,1.482,0,0,0,71.2,9.5a.812.812,0,0,0-.7-.26,1.1,1.1,0,0,0-1.012.608V15h-2.3V7.6ZM82.8,15.137a3.8,3.8,0,0,1-2.755-1.015A3.506,3.506,0,0,1,79,11.479v-.191a4.542,4.542,0,0,1,.42-2,3.076,3.076,0,0,1,1.227-1.343,3.7,3.7,0,0,1,1.914-.475,3.2,3.2,0,0,1,2.461.967,3.8,3.8,0,0,1,.9,2.7v.9H81.34a1.66,1.66,0,0,0,.54.978,1.607,1.607,0,0,0,1.08.355,2.07,2.07,0,0,0,1.709-.766l1.053,1.244a2.943,2.943,0,0,1-1.22.947A4.124,4.124,0,0,1,82.8,15.137Zm-.26-5.893q-1.012,0-1.2,1.34h2.324v-.178a1.141,1.141,0,0,0-.28-.858A1.115,1.115,0,0,0,82.543,9.244ZM88.962,7.6l.075.868a2.508,2.508,0,0,1,2.112-1,2.11,2.11,0,0,1,1.726.69,3.287,3.287,0,0,1,.591,2.078V15H91.157V10.331a1.248,1.248,0,0,0-.226-.824,1.044,1.044,0,0,0-.82-.263,1.1,1.1,0,0,0-1,.533V15H86.8V7.6Z" transform="translate(1210 2777.229)" fill="#e53935"/>
  </g>
</svg>
