<svg xmlns="http://www.w3.org/2000/svg" width="420" height="175" viewBox="0 0 420 175">
  <g id="Grupo_223730" data-name="Grupo 223730" transform="translate(8951 4250)">
    <path id="Trazado_203036" data-name="Trazado 203036" d="M19,0H401a19,19,0,0,1,19,19V156a19,19,0,0,1-19,19H19A19,19,0,0,1,0,156V19A19,19,0,0,1,19,0Z" transform="translate(-8951 -4250)" fill="#fff"/>
    <path id="Trazado_203037" data-name="Trazado 203037" d="M2.947,8.961l1.289-4.3H5.754l-2.52,7.3a2.048,2.048,0,0,1-1.969,1.6,2.538,2.538,0,0,1-.686-.106V12.348l.27.018a1.386,1.386,0,0,0,.812-.2,1.3,1.3,0,0,0,.431-.659l.205-.544L.07,4.66H1.605Z" transform="translate(-8929.4 -4203)" fill="#12263f"/>
    <path id="Trazado_203038" data-name="Trazado 203038" d="M2.068,4.66l.041.662a2.281,2.281,0,0,1,1.828-.779,1.753,1.753,0,0,1,1.74.973,2.249,2.249,0,0,1,1.945-.973,1.977,1.977,0,0,1,1.562.58,2.554,2.554,0,0,1,.524,1.711V11H8.285V6.875a1.261,1.261,0,0,0-.264-.885,1.154,1.154,0,0,0-.873-.281,1.185,1.185,0,0,0-.794.261,1.375,1.375,0,0,0-.431.683L5.93,11H4.506V6.828A1.016,1.016,0,0,0,3.363,5.709a1.253,1.253,0,0,0-1.213.7V11H.727V4.66Z" transform="translate(-8932.4 -4141)" fill="#12263f"/>
    <path id="Trazado_203039" data-name="Trazado 203039" d="M6.2,7.408a4.653,4.653,0,0,1-.688,2.774,2.432,2.432,0,0,1-2.095.935,2.464,2.464,0,0,1-2.083-.911,4.455,4.455,0,0,1-.718-2.7V6.031A4.583,4.583,0,0,1,1.3,3.271a2.454,2.454,0,0,1,2.1-.92,2.468,2.468,0,0,1,2.089.9A4.443,4.443,0,0,1,6.2,5.932ZM4.775,5.814a3.61,3.61,0,0,0-.328-1.761A1.12,1.12,0,0,0,3.4,3.494a1.119,1.119,0,0,0-1.025.53A3.336,3.336,0,0,0,2.033,5.68V7.613a3.7,3.7,0,0,0,.334,1.781,1.122,1.122,0,0,0,1.049.586A1.1,1.1,0,0,0,4.43,9.438a3.484,3.484,0,0,0,.346-1.7Zm2.977,7.107-.768-.457a4.14,4.14,0,0,0,.466-.929,2.771,2.771,0,0,0,.132-.806V9.623H8.865l-.006,1.025a2.858,2.858,0,0,1-.313,1.245A3.093,3.093,0,0,1,7.752,12.922Zm7.9-5.514a4.653,4.653,0,0,1-.688,2.774,2.432,2.432,0,0,1-2.095.935,2.464,2.464,0,0,1-2.083-.911,4.455,4.455,0,0,1-.718-2.7V6.031a4.583,4.583,0,0,1,.688-2.76,2.454,2.454,0,0,1,2.1-.92,2.468,2.468,0,0,1,2.089.9,4.443,4.443,0,0,1,.706,2.684ZM14.232,5.814A3.61,3.61,0,0,0,13.9,4.054a1.12,1.12,0,0,0-1.043-.56,1.119,1.119,0,0,0-1.025.53A3.336,3.336,0,0,0,11.49,5.68V7.613a3.7,3.7,0,0,0,.334,1.781,1.122,1.122,0,0,0,1.049.586,1.1,1.1,0,0,0,1.014-.542,3.484,3.484,0,0,0,.346-1.7Zm7.113-3.387V3.605H21.17a2.826,2.826,0,0,0-1.91.656,2.746,2.746,0,0,0-.85,1.811,2.312,2.312,0,0,1,1.752-.721,2.184,2.184,0,0,1,1.784.8A3.139,3.139,0,0,1,22.6,8.205a2.934,2.934,0,0,1-.765,2.106,2.639,2.639,0,0,1-2.007.806,2.578,2.578,0,0,1-2.071-.943A3.711,3.711,0,0,1,16.963,7.7V7.215A5.221,5.221,0,0,1,18.056,3.7,3.918,3.918,0,0,1,21.2,2.428ZM19.816,6.5a1.5,1.5,0,0,0-.858.264,1.541,1.541,0,0,0-.571.7V7.9a2.554,2.554,0,0,0,.4,1.509,1.215,1.215,0,0,0,1.031.56,1.2,1.2,0,0,0,1-.475,1.976,1.976,0,0,0,.369-1.248,2,2,0,0,0-.375-1.26A1.2,1.2,0,0,0,19.816,6.5Z" transform="translate(-8914.4 -4203)" fill="#12263f"/>
    <path id="Trazado_203040" data-name="Trazado 203040" d="M2.285,6.084h.867a1.552,1.552,0,0,0,1.04-.34,1.212,1.212,0,0,0,.384-.967,1.321,1.321,0,0,0-.319-.946,1.285,1.285,0,0,0-.976-.337,1.36,1.36,0,0,0-.943.331,1.106,1.106,0,0,0-.369.864H.545a2.155,2.155,0,0,1,.349-1.2,2.342,2.342,0,0,1,.973-.841,3.168,3.168,0,0,1,1.4-.3,2.934,2.934,0,0,1,2.007.642A2.252,2.252,0,0,1,6,4.777a1.813,1.813,0,0,1-.366,1.081,2.3,2.3,0,0,1-.946.765,2.093,2.093,0,0,1,1.069.756,2.069,2.069,0,0,1,.366,1.23,2.291,2.291,0,0,1-.788,1.828,3.06,3.06,0,0,1-2.071.68,3.037,3.037,0,0,1-2.016-.656A2.161,2.161,0,0,1,.463,8.715H1.887a1.191,1.191,0,0,0,.378.914,1.433,1.433,0,0,0,1.017.352,1.478,1.478,0,0,0,1.043-.352,1.319,1.319,0,0,0,.381-1.02,1.332,1.332,0,0,0-.4-1.037,1.7,1.7,0,0,0-1.184-.363H2.285Zm5.467,6.838-.768-.457a4.14,4.14,0,0,0,.466-.929,2.771,2.771,0,0,0,.132-.806V9.623H8.865l-.006,1.025a2.858,2.858,0,0,1-.313,1.245A3.093,3.093,0,0,1,7.752,12.922ZM15.832,11H10.1v-.979l2.842-3.1a7.077,7.077,0,0,0,.876-1.146,1.856,1.856,0,0,0,.261-.923,1.4,1.4,0,0,0-.343-.984,1.189,1.189,0,0,0-.923-.375,1.37,1.37,0,0,0-1.072.422,1.659,1.659,0,0,0-.381,1.154H9.932a2.791,2.791,0,0,1,.354-1.4A2.441,2.441,0,0,1,11.3,2.7a3.226,3.226,0,0,1,1.521-.346,2.886,2.886,0,0,1,1.96.624A2.166,2.166,0,0,1,15.5,4.7a2.928,2.928,0,0,1-.36,1.339,7.613,7.613,0,0,1-1.181,1.591L11.871,9.863h3.961Zm6.762-7.74L19.184,11H17.689l3.4-7.389H16.682V2.469h5.912Z" transform="translate(-8914.4 -4141)" fill="#12263f"/>
    <path id="Trazado_203041" data-name="Trazado 203041" d="M6.2,7.408a4.653,4.653,0,0,1-.688,2.774,2.432,2.432,0,0,1-2.095.935,2.464,2.464,0,0,1-2.083-.911,4.455,4.455,0,0,1-.718-2.7V6.031A4.583,4.583,0,0,1,1.3,3.271a2.454,2.454,0,0,1,2.1-.92,2.468,2.468,0,0,1,2.089.9A4.443,4.443,0,0,1,6.2,5.932ZM4.775,5.814a3.61,3.61,0,0,0-.328-1.761A1.12,1.12,0,0,0,3.4,3.494a1.119,1.119,0,0,0-1.025.53A3.336,3.336,0,0,0,2.033,5.68V7.613a3.7,3.7,0,0,0,.334,1.781,1.122,1.122,0,0,0,1.049.586A1.1,1.1,0,0,0,4.43,9.438a3.484,3.484,0,0,0,.346-1.7Zm2.977,7.107-.768-.457a4.14,4.14,0,0,0,.466-.929,2.771,2.771,0,0,0,.132-.806V9.623H8.865l-.006,1.025a2.858,2.858,0,0,1-.313,1.245A3.093,3.093,0,0,1,7.752,12.922Zm7.9-5.514a4.653,4.653,0,0,1-.688,2.774,2.432,2.432,0,0,1-2.095.935,2.464,2.464,0,0,1-2.083-.911,4.455,4.455,0,0,1-.718-2.7V6.031a4.583,4.583,0,0,1,.688-2.76,2.454,2.454,0,0,1,2.1-.92,2.468,2.468,0,0,1,2.089.9,4.443,4.443,0,0,1,.706,2.684ZM14.232,5.814A3.61,3.61,0,0,0,13.9,4.054a1.12,1.12,0,0,0-1.043-.56,1.119,1.119,0,0,0-1.025.53A3.336,3.336,0,0,0,11.49,5.68V7.613a3.7,3.7,0,0,0,.334,1.781,1.122,1.122,0,0,0,1.049.586,1.1,1.1,0,0,0,1.014-.542,3.484,3.484,0,0,0,.346-1.7ZM22.594,3.26,19.184,11H17.689l3.4-7.389H16.682V2.469h5.912Z" transform="translate(-8883.4 -4203)" fill="#12263f"/>
    <path id="Trazado_203042" data-name="Trazado 203042" d="M6.375,11H.639v-.979l2.842-3.1a7.077,7.077,0,0,0,.876-1.146,1.856,1.856,0,0,0,.261-.923,1.4,1.4,0,0,0-.343-.984,1.189,1.189,0,0,0-.923-.375,1.37,1.37,0,0,0-1.072.422A1.659,1.659,0,0,0,1.9,5.07H.475a2.791,2.791,0,0,1,.354-1.4A2.441,2.441,0,0,1,1.843,2.7a3.226,3.226,0,0,1,1.521-.346,2.886,2.886,0,0,1,1.96.624A2.166,2.166,0,0,1,6.041,4.7a2.928,2.928,0,0,1-.36,1.339A7.613,7.613,0,0,1,4.5,7.631L2.414,9.863H6.375Zm1.377,1.922-.768-.457a4.14,4.14,0,0,0,.466-.929,2.771,2.771,0,0,0,.132-.806V9.623H8.865l-.006,1.025a2.858,2.858,0,0,1-.313,1.245A3.093,3.093,0,0,1,7.752,12.922Zm7.717-8.2a1.983,1.983,0,0,1-.322,1.116,2.235,2.235,0,0,1-.879.771,2.435,2.435,0,0,1,1.028.85,2.143,2.143,0,0,1,.36,1.219,2.238,2.238,0,0,1-.762,1.784,2.99,2.99,0,0,1-2.027.659,3,3,0,0,1-2.036-.662,2.236,2.236,0,0,1-.765-1.781,2.168,2.168,0,0,1,.363-1.23,2.334,2.334,0,0,1,1.02-.838,2.223,2.223,0,0,1-.87-.771,2,2,0,0,1-.319-1.116,2.219,2.219,0,0,1,.7-1.729,2.716,2.716,0,0,1,1.9-.639,2.725,2.725,0,0,1,1.9.639A2.219,2.219,0,0,1,15.469,4.719ZM14.232,8.6a1.406,1.406,0,0,0-.378-1.022,1.328,1.328,0,0,0-1-.39,1.314,1.314,0,0,0-.993.387A1.417,1.417,0,0,0,11.49,8.6a1.372,1.372,0,0,0,.366,1,1.348,1.348,0,0,0,1.011.375,1.352,1.352,0,0,0,1-.363A1.377,1.377,0,0,0,14.232,8.6Zm-.182-3.832a1.324,1.324,0,0,0-.322-.917A1.238,1.238,0,0,0,12,3.837a1.324,1.324,0,0,0-.316.935A1.319,1.319,0,0,0,12,5.7a1.253,1.253,0,0,0,1.729,0A1.319,1.319,0,0,0,14.051,4.771Zm8.426,2.637a4.653,4.653,0,0,1-.688,2.774,2.432,2.432,0,0,1-2.095.935,2.464,2.464,0,0,1-2.083-.911,4.455,4.455,0,0,1-.718-2.7V6.031a4.583,4.583,0,0,1,.688-2.76,2.454,2.454,0,0,1,2.1-.92,2.468,2.468,0,0,1,2.089.9,4.443,4.443,0,0,1,.706,2.684ZM21.053,5.814a3.61,3.61,0,0,0-.328-1.761,1.254,1.254,0,0,0-2.068-.029,3.336,3.336,0,0,0-.346,1.655V7.613a3.7,3.7,0,0,0,.334,1.781,1.122,1.122,0,0,0,1.049.586,1.1,1.1,0,0,0,1.014-.542,3.484,3.484,0,0,0,.346-1.7Z" transform="translate(-8883.4 -4141)" fill="#12263f"/>
    <path id="Trazado_203043" data-name="Trazado 203043" d="M6.2,7.408a4.653,4.653,0,0,1-.688,2.774,2.432,2.432,0,0,1-2.095.935,2.464,2.464,0,0,1-2.083-.911,4.455,4.455,0,0,1-.718-2.7V6.031A4.583,4.583,0,0,1,1.3,3.271a2.454,2.454,0,0,1,2.1-.92,2.468,2.468,0,0,1,2.089.9A4.443,4.443,0,0,1,6.2,5.932ZM4.775,5.814a3.61,3.61,0,0,0-.328-1.761A1.12,1.12,0,0,0,3.4,3.494a1.119,1.119,0,0,0-1.025.53A3.336,3.336,0,0,0,2.033,5.68V7.613a3.7,3.7,0,0,0,.334,1.781,1.122,1.122,0,0,0,1.049.586A1.1,1.1,0,0,0,4.43,9.438a3.484,3.484,0,0,0,.346-1.7Zm2.977,7.107-.768-.457a4.14,4.14,0,0,0,.466-.929,2.771,2.771,0,0,0,.132-.806V9.623H8.865l-.006,1.025a2.858,2.858,0,0,1-.313,1.245A3.093,3.093,0,0,1,7.752,12.922Zm7.9-5.514a4.653,4.653,0,0,1-.688,2.774,2.432,2.432,0,0,1-2.095.935,2.464,2.464,0,0,1-2.083-.911,4.455,4.455,0,0,1-.718-2.7V6.031a4.583,4.583,0,0,1,.688-2.76,2.454,2.454,0,0,1,2.1-.92,2.468,2.468,0,0,1,2.089.9,4.443,4.443,0,0,1,.706,2.684ZM14.232,5.814A3.61,3.61,0,0,0,13.9,4.054a1.12,1.12,0,0,0-1.043-.56,1.119,1.119,0,0,0-1.025.53A3.336,3.336,0,0,0,11.49,5.68V7.613a3.7,3.7,0,0,0,.334,1.781,1.122,1.122,0,0,0,1.049.586,1.1,1.1,0,0,0,1.014-.542,3.484,3.484,0,0,0,.346-1.7Zm8.057-1.1a1.983,1.983,0,0,1-.322,1.116,2.235,2.235,0,0,1-.879.771,2.435,2.435,0,0,1,1.028.85,2.143,2.143,0,0,1,.36,1.219,2.238,2.238,0,0,1-.762,1.784,2.99,2.99,0,0,1-2.027.659,3,3,0,0,1-2.036-.662,2.236,2.236,0,0,1-.765-1.781,2.168,2.168,0,0,1,.363-1.23,2.334,2.334,0,0,1,1.02-.838,2.223,2.223,0,0,1-.87-.771,2,2,0,0,1-.319-1.116,2.219,2.219,0,0,1,.7-1.729,2.716,2.716,0,0,1,1.9-.639,2.725,2.725,0,0,1,1.9.639A2.219,2.219,0,0,1,22.289,4.719ZM21.053,8.6a1.406,1.406,0,0,0-.378-1.022,1.328,1.328,0,0,0-1-.39,1.314,1.314,0,0,0-.993.387A1.417,1.417,0,0,0,18.311,8.6a1.372,1.372,0,0,0,.366,1,1.56,1.56,0,0,0,2.016.012A1.377,1.377,0,0,0,21.053,8.6Zm-.182-3.832a1.324,1.324,0,0,0-.322-.917,1.238,1.238,0,0,0-1.729-.018,1.324,1.324,0,0,0-.316.935,1.319,1.319,0,0,0,.319.932,1.253,1.253,0,0,0,1.729,0A1.319,1.319,0,0,0,20.871,4.771Z" transform="translate(-8851.739 -4203)" fill="#12263f"/>
    <path id="Trazado_203044" data-name="Trazado 203044" d="M6.375,11H.639v-.979l2.842-3.1a7.077,7.077,0,0,0,.876-1.146,1.856,1.856,0,0,0,.261-.923,1.4,1.4,0,0,0-.343-.984,1.189,1.189,0,0,0-.923-.375,1.37,1.37,0,0,0-1.072.422A1.659,1.659,0,0,0,1.9,5.07H.475a2.791,2.791,0,0,1,.354-1.4A2.441,2.441,0,0,1,1.843,2.7a3.226,3.226,0,0,1,1.521-.346,2.886,2.886,0,0,1,1.96.624A2.166,2.166,0,0,1,6.041,4.7a2.928,2.928,0,0,1-.36,1.339A7.613,7.613,0,0,1,4.5,7.631L2.414,9.863H6.375Zm1.377,1.922-.768-.457a4.14,4.14,0,0,0,.466-.929,2.771,2.771,0,0,0,.132-.806V9.623H8.865l-.006,1.025a2.858,2.858,0,0,1-.313,1.245A3.093,3.093,0,0,1,7.752,12.922Zm7.16-4.963h1.061V9.1H14.912V11H13.488V9.1H9.8l-.041-.867,3.68-5.766h1.471Zm-3.656,0h2.232V4.4l-.105.188ZM17.3,6.77l.463-4.3h4.582V3.7h-3.4l-.234,2.039a2.634,2.634,0,0,1,1.336-.34,2.377,2.377,0,0,1,1.9.779,3.088,3.088,0,0,1,.677,2.1,2.842,2.842,0,0,1-.75,2.071,2.737,2.737,0,0,1-2.057.771,2.867,2.867,0,0,1-1.942-.665A2.4,2.4,0,0,1,17.033,8.7H18.41a1.5,1.5,0,0,0,.445.952,1.355,1.355,0,0,0,.949.331,1.224,1.224,0,0,0,1.022-.469,2.023,2.023,0,0,0,.366-1.277A1.788,1.788,0,0,0,20.789,7a1.414,1.414,0,0,0-1.113-.454,1.555,1.555,0,0,0-1.242.5Z" transform="translate(-8851.739 -4141)" fill="#12263f"/>
    <path id="Trazado_203045" data-name="Trazado 203045" d="M6.2,7.408a4.653,4.653,0,0,1-.688,2.774,2.432,2.432,0,0,1-2.095.935,2.464,2.464,0,0,1-2.083-.911,4.455,4.455,0,0,1-.718-2.7V6.031A4.583,4.583,0,0,1,1.3,3.271a2.454,2.454,0,0,1,2.1-.92,2.468,2.468,0,0,1,2.089.9A4.443,4.443,0,0,1,6.2,5.932ZM4.775,5.814a3.61,3.61,0,0,0-.328-1.761A1.12,1.12,0,0,0,3.4,3.494a1.119,1.119,0,0,0-1.025.53A3.336,3.336,0,0,0,2.033,5.68V7.613a3.7,3.7,0,0,0,.334,1.781,1.122,1.122,0,0,0,1.049.586A1.1,1.1,0,0,0,4.43,9.438a3.484,3.484,0,0,0,.346-1.7Zm2.977,7.107-.768-.457a4.14,4.14,0,0,0,.466-.929,2.771,2.771,0,0,0,.132-.806V9.623H8.865l-.006,1.025a2.858,2.858,0,0,1-.313,1.245A3.093,3.093,0,0,1,7.752,12.922Zm7.9-5.514a4.653,4.653,0,0,1-.688,2.774,2.432,2.432,0,0,1-2.095.935,2.464,2.464,0,0,1-2.083-.911,4.455,4.455,0,0,1-.718-2.7V6.031a4.583,4.583,0,0,1,.688-2.76,2.454,2.454,0,0,1,2.1-.92,2.468,2.468,0,0,1,2.089.9,4.443,4.443,0,0,1,.706,2.684ZM14.232,5.814A3.61,3.61,0,0,0,13.9,4.054a1.12,1.12,0,0,0-1.043-.56,1.119,1.119,0,0,0-1.025.53A3.336,3.336,0,0,0,11.49,5.68V7.613a3.7,3.7,0,0,0,.334,1.781,1.122,1.122,0,0,0,1.049.586,1.1,1.1,0,0,0,1.014-.542,3.484,3.484,0,0,0,.346-1.7Zm6.721,1.617A2.327,2.327,0,0,1,17.49,7.4a3.094,3.094,0,0,1-.668-2.071,3.4,3.4,0,0,1,.34-1.529,2.534,2.534,0,0,1,.967-1.066,2.743,2.743,0,0,1,1.453-.381,2.464,2.464,0,0,1,2.045.961,4.047,4.047,0,0,1,.756,2.572v.4A5.257,5.257,0,0,1,21.34,9.8a3.926,3.926,0,0,1-3.111,1.23h-.17V9.857h.205A2.916,2.916,0,0,0,20.2,9.251,2.528,2.528,0,0,0,20.953,7.432Zm-1.371-.357a1.437,1.437,0,0,0,.8-.246,1.622,1.622,0,0,0,.58-.68V5.592a2.673,2.673,0,0,0-.387-1.518,1.165,1.165,0,0,0-1-.574,1.151,1.151,0,0,0-.981.507,2.131,2.131,0,0,0-.366,1.28A2.1,2.1,0,0,0,18.6,6.582,1.169,1.169,0,0,0,19.582,7.074Z" transform="translate(-8821.631 -4203)" fill="#12263f"/>
    <path id="Trazado_203046" data-name="Trazado 203046" d="M6.375,11H.639v-.979l2.842-3.1a7.077,7.077,0,0,0,.876-1.146,1.856,1.856,0,0,0,.261-.923,1.4,1.4,0,0,0-.343-.984,1.189,1.189,0,0,0-.923-.375,1.37,1.37,0,0,0-1.072.422A1.659,1.659,0,0,0,1.9,5.07H.475a2.791,2.791,0,0,1,.354-1.4A2.441,2.441,0,0,1,1.843,2.7a3.226,3.226,0,0,1,1.521-.346,2.886,2.886,0,0,1,1.96.624A2.166,2.166,0,0,1,6.041,4.7a2.928,2.928,0,0,1-.36,1.339A7.613,7.613,0,0,1,4.5,7.631L2.414,9.863H6.375Zm1.377,1.922-.768-.457a4.14,4.14,0,0,0,.466-.929,2.771,2.771,0,0,0,.132-.806V9.623H8.865l-.006,1.025a2.858,2.858,0,0,1-.313,1.245A3.093,3.093,0,0,1,7.752,12.922ZM13.951,11H12.533V4.146l-2.092.713v-1.2L13.77,2.439h.182Zm8.338-6.281a1.983,1.983,0,0,1-.322,1.116,2.235,2.235,0,0,1-.879.771,2.435,2.435,0,0,1,1.028.85,2.143,2.143,0,0,1,.36,1.219,2.238,2.238,0,0,1-.762,1.784,2.99,2.99,0,0,1-2.027.659,3,3,0,0,1-2.036-.662,2.236,2.236,0,0,1-.765-1.781,2.168,2.168,0,0,1,.363-1.23,2.334,2.334,0,0,1,1.02-.838,2.223,2.223,0,0,1-.87-.771,2,2,0,0,1-.319-1.116,2.219,2.219,0,0,1,.7-1.729,2.716,2.716,0,0,1,1.9-.639,2.725,2.725,0,0,1,1.9.639A2.219,2.219,0,0,1,22.289,4.719ZM21.053,8.6a1.406,1.406,0,0,0-.378-1.022,1.328,1.328,0,0,0-1-.39,1.314,1.314,0,0,0-.993.387A1.417,1.417,0,0,0,18.311,8.6a1.372,1.372,0,0,0,.366,1,1.56,1.56,0,0,0,2.016.012A1.377,1.377,0,0,0,21.053,8.6Zm-.182-3.832a1.324,1.324,0,0,0-.322-.917,1.238,1.238,0,0,0-1.729-.018,1.324,1.324,0,0,0-.316.935,1.319,1.319,0,0,0,.319.932,1.253,1.253,0,0,0,1.729,0A1.319,1.319,0,0,0,20.871,4.771Z" transform="translate(-8821.631 -4141)" fill="#12263f"/>
    <path id="Trazado_203047" data-name="Trazado 203047" d="M6.2,7.408a4.653,4.653,0,0,1-.688,2.774,2.432,2.432,0,0,1-2.095.935,2.464,2.464,0,0,1-2.083-.911,4.455,4.455,0,0,1-.718-2.7V6.031A4.583,4.583,0,0,1,1.3,3.271a2.454,2.454,0,0,1,2.1-.92,2.468,2.468,0,0,1,2.089.9A4.443,4.443,0,0,1,6.2,5.932ZM4.775,5.814a3.61,3.61,0,0,0-.328-1.761A1.12,1.12,0,0,0,3.4,3.494a1.119,1.119,0,0,0-1.025.53A3.336,3.336,0,0,0,2.033,5.68V7.613a3.7,3.7,0,0,0,.334,1.781,1.122,1.122,0,0,0,1.049.586A1.1,1.1,0,0,0,4.43,9.438a3.484,3.484,0,0,0,.346-1.7Zm2.977,7.107-.768-.457a4.14,4.14,0,0,0,.466-.929,2.771,2.771,0,0,0,.132-.806V9.623H8.865l-.006,1.025a2.858,2.858,0,0,1-.313,1.245A3.093,3.093,0,0,1,7.752,12.922ZM13.951,11H12.533V4.146l-2.092.713v-1.2L13.77,2.439h.182Zm8.525-3.592a4.653,4.653,0,0,1-.688,2.774,2.432,2.432,0,0,1-2.095.935,2.464,2.464,0,0,1-2.083-.911,4.455,4.455,0,0,1-.718-2.7V6.031a4.583,4.583,0,0,1,.688-2.76,2.454,2.454,0,0,1,2.1-.92,2.468,2.468,0,0,1,2.089.9,4.443,4.443,0,0,1,.706,2.684ZM21.053,5.814a3.61,3.61,0,0,0-.328-1.761,1.254,1.254,0,0,0-2.068-.029,3.336,3.336,0,0,0-.346,1.655V7.613a3.7,3.7,0,0,0,.334,1.781,1.122,1.122,0,0,0,1.049.586,1.1,1.1,0,0,0,1.014-.542,3.484,3.484,0,0,0,.346-1.7Z" transform="translate(-8790.521 -4203)" fill="#12263f"/>
    <path id="Trazado_203048" data-name="Trazado 203048" d="M4.494,11H3.076V4.146L.984,4.859v-1.2L4.313,2.439h.182Zm3.258,1.922-.768-.457a4.14,4.14,0,0,0,.466-.929,2.771,2.771,0,0,0,.132-.806V9.623H8.865l-.006,1.025a2.858,2.858,0,0,1-.313,1.245A3.093,3.093,0,0,1,7.752,12.922Zm6.381-5.49A2.327,2.327,0,0,1,10.67,7.4,3.094,3.094,0,0,1,10,5.328a3.4,3.4,0,0,1,.34-1.529,2.534,2.534,0,0,1,.967-1.066,2.743,2.743,0,0,1,1.453-.381,2.464,2.464,0,0,1,2.045.961,4.047,4.047,0,0,1,.756,2.572v.4A5.257,5.257,0,0,1,14.52,9.8a3.926,3.926,0,0,1-3.111,1.23h-.17V9.857h.205a2.916,2.916,0,0,0,1.934-.606A2.528,2.528,0,0,0,14.133,7.432Zm-1.371-.357a1.437,1.437,0,0,0,.8-.246,1.622,1.622,0,0,0,.58-.68V5.592a2.673,2.673,0,0,0-.387-1.518,1.165,1.165,0,0,0-1-.574,1.151,1.151,0,0,0-.981.507,2.131,2.131,0,0,0-.366,1.28,2.1,2.1,0,0,0,.369,1.295A1.169,1.169,0,0,0,12.762,7.074Zm8.584-4.646V3.605H21.17a2.826,2.826,0,0,0-1.91.656,2.746,2.746,0,0,0-.85,1.811,2.312,2.312,0,0,1,1.752-.721,2.184,2.184,0,0,1,1.784.8A3.139,3.139,0,0,1,22.6,8.205a2.934,2.934,0,0,1-.765,2.106,2.639,2.639,0,0,1-2.007.806,2.578,2.578,0,0,1-2.071-.943A3.711,3.711,0,0,1,16.963,7.7V7.215A5.221,5.221,0,0,1,18.056,3.7,3.918,3.918,0,0,1,21.2,2.428ZM19.816,6.5a1.5,1.5,0,0,0-.858.264,1.541,1.541,0,0,0-.571.7V7.9a2.554,2.554,0,0,0,.4,1.509,1.215,1.215,0,0,0,1.031.56,1.2,1.2,0,0,0,1-.475,1.976,1.976,0,0,0,.369-1.248,2,2,0,0,0-.375-1.26A1.2,1.2,0,0,0,19.816,6.5Z" transform="translate(-8790.521 -4141)" fill="#12263f"/>
    <path id="Trazado_203049" data-name="Trazado 203049" d="M6.2,7.408a4.653,4.653,0,0,1-.688,2.774,2.432,2.432,0,0,1-2.095.935,2.464,2.464,0,0,1-2.083-.911,4.455,4.455,0,0,1-.718-2.7V6.031A4.583,4.583,0,0,1,1.3,3.271a2.454,2.454,0,0,1,2.1-.92,2.468,2.468,0,0,1,2.089.9A4.443,4.443,0,0,1,6.2,5.932ZM4.775,5.814a3.61,3.61,0,0,0-.328-1.761A1.12,1.12,0,0,0,3.4,3.494a1.119,1.119,0,0,0-1.025.53A3.336,3.336,0,0,0,2.033,5.68V7.613a3.7,3.7,0,0,0,.334,1.781,1.122,1.122,0,0,0,1.049.586A1.1,1.1,0,0,0,4.43,9.438a3.484,3.484,0,0,0,.346-1.7Zm2.977,7.107-.768-.457a4.14,4.14,0,0,0,.466-.929,2.771,2.771,0,0,0,.132-.806V9.623H8.865l-.006,1.025a2.858,2.858,0,0,1-.313,1.245A3.093,3.093,0,0,1,7.752,12.922ZM13.951,11H12.533V4.146l-2.092.713v-1.2L13.77,2.439h.182Zm6.82,0H19.354V4.146l-2.092.713v-1.2L20.59,2.439h.182Z" transform="translate(-8759.413 -4203)" fill="#12263f"/>
    <path id="Trazado_203050" data-name="Trazado 203050" d="M4.494,11H3.076V4.146L.984,4.859v-1.2L4.313,2.439h.182Zm3.258,1.922-.768-.457a4.14,4.14,0,0,0,.466-.929,2.771,2.771,0,0,0,.132-.806V9.623H8.865l-.006,1.025a2.858,2.858,0,0,1-.313,1.245A3.093,3.093,0,0,1,7.752,12.922ZM15.773,3.26,12.363,11H10.869l3.4-7.389H9.861V2.469h5.912Zm6.516,1.459a1.983,1.983,0,0,1-.322,1.116,2.235,2.235,0,0,1-.879.771,2.435,2.435,0,0,1,1.028.85,2.143,2.143,0,0,1,.36,1.219,2.238,2.238,0,0,1-.762,1.784,2.99,2.99,0,0,1-2.027.659,3,3,0,0,1-2.036-.662,2.236,2.236,0,0,1-.765-1.781,2.168,2.168,0,0,1,.363-1.23,2.334,2.334,0,0,1,1.02-.838,2.223,2.223,0,0,1-.87-.771,2,2,0,0,1-.319-1.116,2.219,2.219,0,0,1,.7-1.729,2.716,2.716,0,0,1,1.9-.639,2.725,2.725,0,0,1,1.9.639A2.219,2.219,0,0,1,22.289,4.719ZM21.053,8.6a1.406,1.406,0,0,0-.378-1.022,1.328,1.328,0,0,0-1-.39,1.314,1.314,0,0,0-.993.387A1.417,1.417,0,0,0,18.311,8.6a1.372,1.372,0,0,0,.366,1,1.56,1.56,0,0,0,2.016.012A1.377,1.377,0,0,0,21.053,8.6Zm-.182-3.832a1.324,1.324,0,0,0-.322-.917,1.238,1.238,0,0,0-1.729-.018,1.324,1.324,0,0,0-.316.935,1.319,1.319,0,0,0,.319.932,1.253,1.253,0,0,0,1.729,0A1.319,1.319,0,0,0,20.871,4.771Z" transform="translate(-8759.413 -4141)" fill="#12263f"/>
    <path id="Trazado_203051" data-name="Trazado 203051" d="M6.2,7.408a4.653,4.653,0,0,1-.688,2.774,2.432,2.432,0,0,1-2.095.935,2.464,2.464,0,0,1-2.083-.911,4.455,4.455,0,0,1-.718-2.7V6.031A4.583,4.583,0,0,1,1.3,3.271a2.454,2.454,0,0,1,2.1-.92,2.468,2.468,0,0,1,2.089.9A4.443,4.443,0,0,1,6.2,5.932ZM4.775,5.814a3.61,3.61,0,0,0-.328-1.761A1.12,1.12,0,0,0,3.4,3.494a1.119,1.119,0,0,0-1.025.53A3.336,3.336,0,0,0,2.033,5.68V7.613a3.7,3.7,0,0,0,.334,1.781,1.122,1.122,0,0,0,1.049.586A1.1,1.1,0,0,0,4.43,9.438a3.484,3.484,0,0,0,.346-1.7Zm2.977,7.107-.768-.457a4.14,4.14,0,0,0,.466-.929,2.771,2.771,0,0,0,.132-.806V9.623H8.865l-.006,1.025a2.858,2.858,0,0,1-.313,1.245A3.093,3.093,0,0,1,7.752,12.922ZM13.951,11H12.533V4.146l-2.092.713v-1.2L13.77,2.439h.182Zm8.7,0H16.916v-.979l2.842-3.1a7.077,7.077,0,0,0,.876-1.146,1.856,1.856,0,0,0,.261-.923,1.4,1.4,0,0,0-.343-.984,1.189,1.189,0,0,0-.923-.375,1.37,1.37,0,0,0-1.072.422,1.659,1.659,0,0,0-.381,1.154H16.752a2.791,2.791,0,0,1,.354-1.4A2.441,2.441,0,0,1,18.12,2.7a3.226,3.226,0,0,1,1.521-.346,2.886,2.886,0,0,1,1.96.624A2.166,2.166,0,0,1,22.318,4.7a2.928,2.928,0,0,1-.36,1.339,7.613,7.613,0,0,1-1.181,1.591L18.691,9.863h3.961Z" transform="translate(-8729.305 -4203)" fill="#12263f"/>
    <path id="Trazado_203052" data-name="Trazado 203052" d="M4.494,11H3.076V4.146L.984,4.859v-1.2L4.313,2.439h.182Zm3.258,1.922-.768-.457a4.14,4.14,0,0,0,.466-.929,2.771,2.771,0,0,0,.132-.806V9.623H8.865l-.006,1.025a2.858,2.858,0,0,1-.313,1.245A3.093,3.093,0,0,1,7.752,12.922ZM14.525,2.428V3.605H14.35a2.826,2.826,0,0,0-1.91.656,2.746,2.746,0,0,0-.85,1.811,2.312,2.312,0,0,1,1.752-.721,2.184,2.184,0,0,1,1.784.8,3.139,3.139,0,0,1,.653,2.057,2.934,2.934,0,0,1-.765,2.106,2.639,2.639,0,0,1-2.007.806,2.578,2.578,0,0,1-2.071-.943A3.711,3.711,0,0,1,10.143,7.7V7.215A5.221,5.221,0,0,1,11.235,3.7a3.918,3.918,0,0,1,3.144-1.271ZM13,6.5a1.5,1.5,0,0,0-.858.264,1.541,1.541,0,0,0-.571.7V7.9a2.554,2.554,0,0,0,.4,1.509A1.215,1.215,0,0,0,13,9.969a1.2,1.2,0,0,0,1-.475,1.976,1.976,0,0,0,.369-1.248,2,2,0,0,0-.375-1.26A1.2,1.2,0,0,0,13,6.5Zm5.566-.416h.867a1.552,1.552,0,0,0,1.04-.34,1.212,1.212,0,0,0,.384-.967,1.321,1.321,0,0,0-.319-.946,1.285,1.285,0,0,0-.976-.337,1.36,1.36,0,0,0-.943.331,1.106,1.106,0,0,0-.369.864H16.822a2.155,2.155,0,0,1,.349-1.2,2.342,2.342,0,0,1,.973-.841,3.168,3.168,0,0,1,1.4-.3,2.934,2.934,0,0,1,2.007.642,2.252,2.252,0,0,1,.729,1.784,1.813,1.813,0,0,1-.366,1.081,2.3,2.3,0,0,1-.946.765,2.093,2.093,0,0,1,1.069.756,2.069,2.069,0,0,1,.366,1.23,2.291,2.291,0,0,1-.788,1.828,3.06,3.06,0,0,1-2.071.68,3.037,3.037,0,0,1-2.016-.656,2.161,2.161,0,0,1-.785-1.746h1.424a1.191,1.191,0,0,0,.378.914,1.433,1.433,0,0,0,1.017.352A1.478,1.478,0,0,0,20.6,9.629a1.319,1.319,0,0,0,.381-1.02,1.332,1.332,0,0,0-.4-1.037A1.7,1.7,0,0,0,19.4,7.209h-.838Z" transform="translate(-8729.305 -4141)" fill="#12263f"/>
    <path id="Trazado_203053" data-name="Trazado 203053" d="M6.2,7.408a4.653,4.653,0,0,1-.688,2.774,2.432,2.432,0,0,1-2.095.935,2.464,2.464,0,0,1-2.083-.911,4.455,4.455,0,0,1-.718-2.7V6.031A4.583,4.583,0,0,1,1.3,3.271a2.454,2.454,0,0,1,2.1-.92,2.468,2.468,0,0,1,2.089.9A4.443,4.443,0,0,1,6.2,5.932ZM4.775,5.814a3.61,3.61,0,0,0-.328-1.761A1.12,1.12,0,0,0,3.4,3.494a1.119,1.119,0,0,0-1.025.53A3.336,3.336,0,0,0,2.033,5.68V7.613a3.7,3.7,0,0,0,.334,1.781,1.122,1.122,0,0,0,1.049.586A1.1,1.1,0,0,0,4.43,9.438a3.484,3.484,0,0,0,.346-1.7Zm2.977,7.107-.768-.457a4.14,4.14,0,0,0,.466-.929,2.771,2.771,0,0,0,.132-.806V9.623H8.865l-.006,1.025a2.858,2.858,0,0,1-.313,1.245A3.093,3.093,0,0,1,7.752,12.922ZM13.951,11H12.533V4.146l-2.092.713v-1.2L13.77,2.439h.182Zm4.611-4.916h.867a1.552,1.552,0,0,0,1.04-.34,1.212,1.212,0,0,0,.384-.967,1.321,1.321,0,0,0-.319-.946,1.285,1.285,0,0,0-.976-.337,1.36,1.36,0,0,0-.943.331,1.106,1.106,0,0,0-.369.864H16.822a2.155,2.155,0,0,1,.349-1.2,2.342,2.342,0,0,1,.973-.841,3.168,3.168,0,0,1,1.4-.3,2.934,2.934,0,0,1,2.007.642,2.252,2.252,0,0,1,.729,1.784,1.813,1.813,0,0,1-.366,1.081,2.3,2.3,0,0,1-.946.765,2.093,2.093,0,0,1,1.069.756,2.069,2.069,0,0,1,.366,1.23,2.291,2.291,0,0,1-.788,1.828,3.06,3.06,0,0,1-2.071.68,3.037,3.037,0,0,1-2.016-.656,2.161,2.161,0,0,1-.785-1.746h1.424a1.191,1.191,0,0,0,.378.914,1.433,1.433,0,0,0,1.017.352A1.478,1.478,0,0,0,20.6,9.629a1.319,1.319,0,0,0,.381-1.02,1.332,1.332,0,0,0-.4-1.037A1.7,1.7,0,0,0,19.4,7.209h-.838Z" transform="translate(-8698.195 -4203)" fill="#12263f"/>
    <path id="Trazado_203054" data-name="Trazado 203054" d="M4.494,11H3.076V4.146L.984,4.859v-1.2L4.313,2.439h.182Zm3.258,1.922-.768-.457a4.14,4.14,0,0,0,.466-.929,2.771,2.771,0,0,0,.132-.806V9.623H8.865l-.006,1.025a2.858,2.858,0,0,1-.313,1.245A3.093,3.093,0,0,1,7.752,12.922ZM10.477,6.77l.463-4.3h4.582V3.7h-3.4l-.234,2.039a2.634,2.634,0,0,1,1.336-.34,2.377,2.377,0,0,1,1.9.779,3.088,3.088,0,0,1,.677,2.1,2.842,2.842,0,0,1-.75,2.071,2.737,2.737,0,0,1-2.057.771,2.867,2.867,0,0,1-1.942-.665A2.4,2.4,0,0,1,10.213,8.7H11.59a1.5,1.5,0,0,0,.445.952,1.355,1.355,0,0,0,.949.331,1.224,1.224,0,0,0,1.022-.469,2.023,2.023,0,0,0,.366-1.277A1.788,1.788,0,0,0,13.969,7a1.414,1.414,0,0,0-1.113-.454,1.555,1.555,0,0,0-1.242.5ZM20.771,11H19.354V4.146l-2.092.713v-1.2L20.59,2.439h.182Z" transform="translate(-8698.195 -4141)" fill="#12263f"/>
    <path id="Trazado_203055" data-name="Trazado 203055" d="M6.2,7.408a4.653,4.653,0,0,1-.688,2.774,2.432,2.432,0,0,1-2.095.935,2.464,2.464,0,0,1-2.083-.911,4.455,4.455,0,0,1-.718-2.7V6.031A4.583,4.583,0,0,1,1.3,3.271a2.454,2.454,0,0,1,2.1-.92,2.468,2.468,0,0,1,2.089.9A4.443,4.443,0,0,1,6.2,5.932ZM4.775,5.814a3.61,3.61,0,0,0-.328-1.761A1.12,1.12,0,0,0,3.4,3.494a1.119,1.119,0,0,0-1.025.53A3.336,3.336,0,0,0,2.033,5.68V7.613a3.7,3.7,0,0,0,.334,1.781,1.122,1.122,0,0,0,1.049.586A1.1,1.1,0,0,0,4.43,9.438a3.484,3.484,0,0,0,.346-1.7Zm2.977,7.107-.768-.457a4.14,4.14,0,0,0,.466-.929,2.771,2.771,0,0,0,.132-.806V9.623H8.865l-.006,1.025a2.858,2.858,0,0,1-.313,1.245A3.093,3.093,0,0,1,7.752,12.922ZM13.951,11H12.533V4.146l-2.092.713v-1.2L13.77,2.439h.182Zm7.781-3.041h1.061V9.1H21.732V11H20.309V9.1H16.623l-.041-.867,3.68-5.766h1.471Zm-3.656,0h2.232V4.4l-.105.188Z" transform="translate(-8667.086 -4203)" fill="#12263f"/>
    <path id="Trazado_203056" data-name="Trazado 203056" d="M4.494,11H3.076V4.146L.984,4.859v-1.2L4.313,2.439h.182Zm3.258,1.922-.768-.457a4.14,4.14,0,0,0,.466-.929,2.771,2.771,0,0,0,.132-.806V9.623H8.865l-.006,1.025a2.858,2.858,0,0,1-.313,1.245A3.093,3.093,0,0,1,7.752,12.922Zm7.16-4.963h1.061V9.1H14.912V11H13.488V9.1H9.8l-.041-.867,3.68-5.766h1.471Zm-3.656,0h2.232V4.4l-.105.188Zm11.221-.551a4.653,4.653,0,0,1-.688,2.774,2.432,2.432,0,0,1-2.095.935,2.464,2.464,0,0,1-2.083-.911,4.455,4.455,0,0,1-.718-2.7V6.031a4.583,4.583,0,0,1,.688-2.76,2.454,2.454,0,0,1,2.1-.92,2.468,2.468,0,0,1,2.089.9,4.443,4.443,0,0,1,.706,2.684ZM21.053,5.814a3.61,3.61,0,0,0-.328-1.761,1.254,1.254,0,0,0-2.068-.029,3.336,3.336,0,0,0-.346,1.655V7.613a3.7,3.7,0,0,0,.334,1.781,1.122,1.122,0,0,0,1.049.586,1.1,1.1,0,0,0,1.014-.542,3.484,3.484,0,0,0,.346-1.7Z" transform="translate(-8667.086 -4141)" fill="#12263f"/>
    <path id="Trazado_203057" data-name="Trazado 203057" d="M6.2,7.408a4.653,4.653,0,0,1-.688,2.774,2.432,2.432,0,0,1-2.095.935,2.464,2.464,0,0,1-2.083-.911,4.455,4.455,0,0,1-.718-2.7V6.031A4.583,4.583,0,0,1,1.3,3.271a2.454,2.454,0,0,1,2.1-.92,2.468,2.468,0,0,1,2.089.9A4.443,4.443,0,0,1,6.2,5.932ZM4.775,5.814a3.61,3.61,0,0,0-.328-1.761A1.12,1.12,0,0,0,3.4,3.494a1.119,1.119,0,0,0-1.025.53A3.336,3.336,0,0,0,2.033,5.68V7.613a3.7,3.7,0,0,0,.334,1.781,1.122,1.122,0,0,0,1.049.586A1.1,1.1,0,0,0,4.43,9.438a3.484,3.484,0,0,0,.346-1.7Zm2.977,7.107-.768-.457a4.14,4.14,0,0,0,.466-.929,2.771,2.771,0,0,0,.132-.806V9.623H8.865l-.006,1.025a2.858,2.858,0,0,1-.313,1.245A3.093,3.093,0,0,1,7.752,12.922ZM13.951,11H12.533V4.146l-2.092.713v-1.2L13.77,2.439h.182Zm7.395-8.572V3.605H21.17a2.826,2.826,0,0,0-1.91.656,2.746,2.746,0,0,0-.85,1.811,2.312,2.312,0,0,1,1.752-.721,2.184,2.184,0,0,1,1.784.8A3.139,3.139,0,0,1,22.6,8.205a2.934,2.934,0,0,1-.765,2.106,2.639,2.639,0,0,1-2.007.806,2.578,2.578,0,0,1-2.071-.943A3.711,3.711,0,0,1,16.963,7.7V7.215A5.221,5.221,0,0,1,18.056,3.7,3.918,3.918,0,0,1,21.2,2.428ZM19.816,6.5a1.5,1.5,0,0,0-.858.264,1.541,1.541,0,0,0-.571.7V7.9a2.554,2.554,0,0,0,.4,1.509,1.215,1.215,0,0,0,1.031.56,1.2,1.2,0,0,0,1-.475,1.976,1.976,0,0,0,.369-1.248,2,2,0,0,0-.375-1.26A1.2,1.2,0,0,0,19.816,6.5Z" transform="translate(-8604.76 -4203)" fill="#12263f"/>
    <path id="Trazado_203058" data-name="Trazado 203058" d="M4.494,11H3.076V4.146L.984,4.859v-1.2L4.313,2.439h.182Zm3.258,1.922-.768-.457a4.14,4.14,0,0,0,.466-.929,2.771,2.771,0,0,0,.132-.806V9.623H8.865l-.006,1.025a2.858,2.858,0,0,1-.313,1.245A3.093,3.093,0,0,1,7.752,12.922ZM15.832,11H10.1v-.979l2.842-3.1a7.077,7.077,0,0,0,.876-1.146,1.856,1.856,0,0,0,.261-.923,1.4,1.4,0,0,0-.343-.984,1.189,1.189,0,0,0-.923-.375,1.37,1.37,0,0,0-1.072.422,1.659,1.659,0,0,0-.381,1.154H9.932a2.791,2.791,0,0,1,.354-1.4A2.441,2.441,0,0,1,11.3,2.7a3.226,3.226,0,0,1,1.521-.346,2.886,2.886,0,0,1,1.96.624A2.166,2.166,0,0,1,15.5,4.7a2.928,2.928,0,0,1-.36,1.339,7.613,7.613,0,0,1-1.181,1.591L11.871,9.863h3.961Zm6.82,0H16.916v-.979l2.842-3.1a7.077,7.077,0,0,0,.876-1.146,1.856,1.856,0,0,0,.261-.923,1.4,1.4,0,0,0-.343-.984,1.189,1.189,0,0,0-.923-.375,1.37,1.37,0,0,0-1.072.422,1.659,1.659,0,0,0-.381,1.154H16.752a2.791,2.791,0,0,1,.354-1.4A2.441,2.441,0,0,1,18.12,2.7a3.226,3.226,0,0,1,1.521-.346,2.886,2.886,0,0,1,1.96.624A2.166,2.166,0,0,1,22.318,4.7a2.928,2.928,0,0,1-.36,1.339,7.613,7.613,0,0,1-1.181,1.591L18.691,9.863h3.961Z" transform="translate(-8604.76 -4141)" fill="#12263f"/>
    <path id="Trazado_203059" data-name="Trazado 203059" d="M6.2,7.408a4.653,4.653,0,0,1-.688,2.774,2.432,2.432,0,0,1-2.095.935,2.464,2.464,0,0,1-2.083-.911,4.455,4.455,0,0,1-.718-2.7V6.031A4.583,4.583,0,0,1,1.3,3.271a2.454,2.454,0,0,1,2.1-.92,2.468,2.468,0,0,1,2.089.9A4.443,4.443,0,0,1,6.2,5.932ZM4.775,5.814a3.61,3.61,0,0,0-.328-1.761A1.12,1.12,0,0,0,3.4,3.494a1.119,1.119,0,0,0-1.025.53A3.336,3.336,0,0,0,2.033,5.68V7.613a3.7,3.7,0,0,0,.334,1.781,1.122,1.122,0,0,0,1.049.586A1.1,1.1,0,0,0,4.43,9.438a3.484,3.484,0,0,0,.346-1.7Zm2.977,7.107-.768-.457a4.14,4.14,0,0,0,.466-.929,2.771,2.771,0,0,0,.132-.806V9.623H8.865l-.006,1.025a2.858,2.858,0,0,1-.313,1.245A3.093,3.093,0,0,1,7.752,12.922ZM13.951,11H12.533V4.146l-2.092.713v-1.2L13.77,2.439h.182ZM17.3,6.77l.463-4.3h4.582V3.7h-3.4l-.234,2.039a2.634,2.634,0,0,1,1.336-.34,2.377,2.377,0,0,1,1.9.779,3.088,3.088,0,0,1,.677,2.1,2.842,2.842,0,0,1-.75,2.071,2.737,2.737,0,0,1-2.057.771,2.867,2.867,0,0,1-1.942-.665A2.4,2.4,0,0,1,17.033,8.7H18.41a1.5,1.5,0,0,0,.445.952,1.355,1.355,0,0,0,.949.331,1.224,1.224,0,0,0,1.022-.469,2.023,2.023,0,0,0,.366-1.277A1.788,1.788,0,0,0,20.789,7a1.414,1.414,0,0,0-1.113-.454,1.555,1.555,0,0,0-1.242.5Z" transform="translate(-8635.979 -4203)" fill="#12263f"/>
    <path id="Trazado_203060" data-name="Trazado 203060" d="M4.494,11H3.076V4.146L.984,4.859v-1.2L4.313,2.439h.182Zm3.258,1.922-.768-.457a4.14,4.14,0,0,0,.466-.929,2.771,2.771,0,0,0,.132-.806V9.623H8.865l-.006,1.025a2.858,2.858,0,0,1-.313,1.245A3.093,3.093,0,0,1,7.752,12.922Zm3.99-6.838h.867a1.552,1.552,0,0,0,1.04-.34,1.212,1.212,0,0,0,.384-.967,1.321,1.321,0,0,0-.319-.946,1.285,1.285,0,0,0-.976-.337,1.36,1.36,0,0,0-.943.331,1.106,1.106,0,0,0-.369.864H10a2.155,2.155,0,0,1,.349-1.2,2.342,2.342,0,0,1,.973-.841,3.168,3.168,0,0,1,1.4-.3,2.934,2.934,0,0,1,2.007.642,2.252,2.252,0,0,1,.729,1.784,1.813,1.813,0,0,1-.366,1.081,2.3,2.3,0,0,1-.946.765,2.093,2.093,0,0,1,1.069.756,2.069,2.069,0,0,1,.366,1.23,2.291,2.291,0,0,1-.788,1.828,3.06,3.06,0,0,1-2.071.68,3.037,3.037,0,0,1-2.016-.656A2.161,2.161,0,0,1,9.92,8.715h1.424a1.191,1.191,0,0,0,.378.914,1.433,1.433,0,0,0,1.017.352,1.478,1.478,0,0,0,1.043-.352,1.319,1.319,0,0,0,.381-1.02,1.332,1.332,0,0,0-.4-1.037,1.7,1.7,0,0,0-1.184-.363h-.838ZM22.477,7.408a4.653,4.653,0,0,1-.688,2.774,2.432,2.432,0,0,1-2.095.935,2.464,2.464,0,0,1-2.083-.911,4.455,4.455,0,0,1-.718-2.7V6.031a4.583,4.583,0,0,1,.688-2.76,2.454,2.454,0,0,1,2.1-.92,2.468,2.468,0,0,1,2.089.9,4.443,4.443,0,0,1,.706,2.684ZM21.053,5.814a3.61,3.61,0,0,0-.328-1.761,1.254,1.254,0,0,0-2.068-.029,3.336,3.336,0,0,0-.346,1.655V7.613a3.7,3.7,0,0,0,.334,1.781,1.122,1.122,0,0,0,1.049.586,1.1,1.1,0,0,0,1.014-.542,3.484,3.484,0,0,0,.346-1.7Z" transform="translate(-8635.979 -4141)" fill="#12263f"/>
    <path id="Trazado_203061" data-name="Trazado 203061" d="M6.2,7.408a4.653,4.653,0,0,1-.688,2.774,2.432,2.432,0,0,1-2.095.935,2.464,2.464,0,0,1-2.083-.911,4.455,4.455,0,0,1-.718-2.7V6.031A4.583,4.583,0,0,1,1.3,3.271a2.454,2.454,0,0,1,2.1-.92,2.468,2.468,0,0,1,2.089.9A4.443,4.443,0,0,1,6.2,5.932ZM4.775,5.814a3.61,3.61,0,0,0-.328-1.761A1.12,1.12,0,0,0,3.4,3.494a1.119,1.119,0,0,0-1.025.53A3.336,3.336,0,0,0,2.033,5.68V7.613a3.7,3.7,0,0,0,.334,1.781,1.122,1.122,0,0,0,1.049.586A1.1,1.1,0,0,0,4.43,9.438a3.484,3.484,0,0,0,.346-1.7Zm2.977,7.107-.768-.457a4.14,4.14,0,0,0,.466-.929,2.771,2.771,0,0,0,.132-.806V9.623H8.865l-.006,1.025a2.858,2.858,0,0,1-.313,1.245A3.093,3.093,0,0,1,7.752,12.922ZM13.951,11H12.533V4.146l-2.092.713v-1.2L13.77,2.439h.182Zm8.643-7.74L19.184,11H17.689l3.4-7.389H16.682V2.469h5.912Z" transform="translate(-8573.76 -4203)" fill="#12263f"/>
    <path id="Trazado_203062" data-name="Trazado 203062" d="M4.494,11H3.076V4.146L.984,4.859v-1.2L4.313,2.439h.182Zm3.258,1.922-.768-.457a4.14,4.14,0,0,0,.466-.929,2.771,2.771,0,0,0,.132-.806V9.623H8.865l-.006,1.025a2.858,2.858,0,0,1-.313,1.245A3.093,3.093,0,0,1,7.752,12.922ZM13.951,11H12.533V4.146l-2.092.713v-1.2L13.77,2.439h.182ZM17.3,6.77l.463-4.3h4.582V3.7h-3.4l-.234,2.039a2.634,2.634,0,0,1,1.336-.34,2.377,2.377,0,0,1,1.9.779,3.088,3.088,0,0,1,.677,2.1,2.842,2.842,0,0,1-.75,2.071,2.737,2.737,0,0,1-2.057.771,2.867,2.867,0,0,1-1.942-.665A2.4,2.4,0,0,1,17.033,8.7H18.41a1.5,1.5,0,0,0,.445.952,1.355,1.355,0,0,0,.949.331,1.224,1.224,0,0,0,1.022-.469,2.023,2.023,0,0,0,.366-1.277A1.788,1.788,0,0,0,20.789,7a1.414,1.414,0,0,0-1.113-.454,1.555,1.555,0,0,0-1.242.5Z" transform="translate(-8574.76 -4141)" fill="#12263f"/>
    <g id="Trazado_203063" data-name="Trazado 203063" transform="translate(-8935.26 -4227)" fill="none">
      <path d="M0,0H16.86V63.5H0Z" stroke="none"/>
      <path d="M 0.9999961853027344 1 L 0.9999961853027344 62.5 L 15.86035537719727 62.5 L 15.86035537719727 1 L 0.9999961853027344 1 M -3.814697265625e-06 0 L 16.86035537719727 0 L 16.86035537719727 63.5 L -3.814697265625e-06 63.5 L -3.814697265625e-06 0 Z" stroke="none" fill="#e53935"/>
    </g>
    <g id="Trazado_203064" data-name="Trazado 203064" transform="translate(-8935.26 -4165)" fill="none">
      <path d="M0,0H16.86V63.5H0Z" stroke="none"/>
      <path d="M 0.9999961853027344 1 L 0.9999961853027344 62.5 L 15.86035537719727 62.5 L 15.86035537719727 1 L 0.9999961853027344 1 M -3.814697265625e-06 0 L 16.86035537719727 0 L 16.86035537719727 63.5 L -3.814697265625e-06 63.5 L -3.814697265625e-06 0 Z" stroke="none" fill="#e53935"/>
    </g>
    <g id="Trazado_203065" data-name="Trazado 203065" transform="translate(-8919.4 -4227)" fill="none">
      <path d="M0,0H31.86V63.5H0Z" stroke="none"/>
      <path d="M 0.9999961853027344 1 L 0.9999961853027344 62.5 L 30.86035537719727 62.5 L 30.86035537719727 1 L 0.9999961853027344 1 M -3.814697265625e-06 0 L 31.86035537719727 0 L 31.86035537719727 63.5 L -3.814697265625e-06 63.5 L -3.814697265625e-06 0 Z" stroke="none" fill="#e53935"/>
    </g>
    <g id="Trazado_203066" data-name="Trazado 203066" transform="translate(-8919.4 -4165)" fill="none">
      <path d="M0,0H31.86V63.5H0Z" stroke="none"/>
      <path d="M 0.9999961853027344 1 L 0.9999961853027344 62.5 L 30.86035537719727 62.5 L 30.86035537719727 1 L 0.9999961853027344 1 M -3.814697265625e-06 0 L 31.86035537719727 0 L 31.86035537719727 63.5 L -3.814697265625e-06 63.5 L -3.814697265625e-06 0 Z" stroke="none" fill="#e53935"/>
    </g>
    <g id="Trazado_203067" data-name="Trazado 203067" transform="translate(-8857.4 -4227)" fill="none">
      <path d="M0,0H31.86V63.5H0Z" stroke="none"/>
      <path d="M 0.9999961853027344 1 L 0.9999961853027344 62.5 L 30.86035537719727 62.5 L 30.86035537719727 1 L 0.9999961853027344 1 M -3.814697265625e-06 0 L 31.86035537719727 0 L 31.86035537719727 63.5 L -3.814697265625e-06 63.5 L -3.814697265625e-06 0 Z" stroke="none" fill="#e53935"/>
    </g>
    <g id="Trazado_203068" data-name="Trazado 203068" transform="translate(-8857.4 -4165)" fill="none">
      <path d="M0,0H31.86V63.5H0Z" stroke="none"/>
      <path d="M 0.9999961853027344 1 L 0.9999961853027344 62.5 L 30.86035537719727 62.5 L 30.86035537719727 1 L 0.9999961853027344 1 M -3.814697265625e-06 0 L 31.86035537719727 0 L 31.86035537719727 63.5 L -3.814697265625e-06 63.5 L -3.814697265625e-06 0 Z" stroke="none" fill="#e53935"/>
    </g>
    <g id="Trazado_203069" data-name="Trazado 203069" transform="translate(-8795.4 -4227)" fill="none">
      <path d="M0,0H31.86V63.5H0Z" stroke="none"/>
      <path d="M 0.9999961853027344 1 L 0.9999961853027344 62.5 L 30.86035537719727 62.5 L 30.86035537719727 1 L 0.9999961853027344 1 M -3.814697265625e-06 0 L 31.86035537719727 0 L 31.86035537719727 63.5 L -3.814697265625e-06 63.5 L -3.814697265625e-06 0 Z" stroke="none" fill="#e53935"/>
    </g>
    <g id="Trazado_203070" data-name="Trazado 203070" transform="translate(-8795.4 -4165)" fill="none">
      <path d="M0,0H31.86V63.5H0Z" stroke="none"/>
      <path d="M 0.9999961853027344 1 L 0.9999961853027344 62.5 L 30.86035537719727 62.5 L 30.86035537719727 1 L 0.9999961853027344 1 M -3.814697265625e-06 0 L 31.86035537719727 0 L 31.86035537719727 63.5 L -3.814697265625e-06 63.5 L -3.814697265625e-06 0 Z" stroke="none" fill="#e53935"/>
    </g>
    <g id="Trazado_203071" data-name="Trazado 203071" transform="translate(-8671.4 -4227)" fill="none">
      <path d="M0,0H31.86V63.5H0Z" stroke="none"/>
      <path d="M 0.9999961853027344 1 L 0.9999961853027344 62.5 L 30.86035537719727 62.5 L 30.86035537719727 1 L 0.9999961853027344 1 M -3.814697265625e-06 0 L 31.86035537719727 0 L 31.86035537719727 63.5 L -3.814697265625e-06 63.5 L -3.814697265625e-06 0 Z" stroke="none" fill="#e53935"/>
    </g>
    <g id="Trazado_203072" data-name="Trazado 203072" transform="translate(-8671.4 -4165)" fill="none">
      <path d="M0,0H31.86V63.5H0Z" stroke="none"/>
      <path d="M 0.9999961853027344 1 L 0.9999961853027344 62.5 L 30.86035537719727 62.5 L 30.86035537719727 1 L 0.9999961853027344 1 M -3.814697265625e-06 0 L 31.86035537719727 0 L 31.86035537719727 63.5 L -3.814697265625e-06 63.5 L -3.814697265625e-06 0 Z" stroke="none" fill="#e53935"/>
    </g>
    <g id="Trazado_203073" data-name="Trazado 203073" transform="translate(-8733.4 -4227)" fill="none">
      <path d="M0,0H31.86V63.5H0Z" stroke="none"/>
      <path d="M 0.9999961853027344 1 L 0.9999961853027344 62.5 L 30.86035537719727 62.5 L 30.86035537719727 1 L 0.9999961853027344 1 M -3.814697265625e-06 0 L 31.86035537719727 0 L 31.86035537719727 63.5 L -3.814697265625e-06 63.5 L -3.814697265625e-06 0 Z" stroke="none" fill="#e53935"/>
    </g>
    <g id="Trazado_203074" data-name="Trazado 203074" transform="translate(-8733.4 -4165)" fill="none">
      <path d="M0,0H31.86V63.5H0Z" stroke="none"/>
      <path d="M 0.9999961853027344 1 L 0.9999961853027344 62.5 L 30.86035537719727 62.5 L 30.86035537719727 1 L 0.9999961853027344 1 M -3.814697265625e-06 0 L 31.86035537719727 0 L 31.86035537719727 63.5 L -3.814697265625e-06 63.5 L -3.814697265625e-06 0 Z" stroke="none" fill="#e53935"/>
    </g>
    <g id="Trazado_203075" data-name="Trazado 203075" transform="translate(-8609.4 -4227)" fill="none">
      <path d="M0,0H31.86V63.5H0Z" stroke="none"/>
      <path d="M 0.9999961853027344 1 L 0.9999961853027344 62.5 L 30.86035537719727 62.5 L 30.86035537719727 1 L 0.9999961853027344 1 M -3.814697265625e-06 0 L 31.86035537719727 0 L 31.86035537719727 63.5 L -3.814697265625e-06 63.5 L -3.814697265625e-06 0 Z" stroke="none" fill="#e53935"/>
    </g>
    <g id="Trazado_203076" data-name="Trazado 203076" transform="translate(-8609.4 -4165)" fill="none">
      <path d="M0,0H31.86V63.5H0Z" stroke="none"/>
      <path d="M 0.9999961853027344 1 L 0.9999961853027344 62.5 L 30.86035537719727 62.5 L 30.86035537719727 1 L 0.9999961853027344 1 M -3.814697265625e-06 0 L 31.86035537719727 0 L 31.86035537719727 63.5 L -3.814697265625e-06 63.5 L -3.814697265625e-06 0 Z" stroke="none" fill="#e53935"/>
    </g>
    <g id="Trazado_203077" data-name="Trazado 203077" transform="translate(-8888.6 -4227)" fill="none">
      <path d="M0,0H31.86V63.5H0Z" stroke="none"/>
      <path d="M 0.9999961853027344 1 L 0.9999961853027344 62.5 L 30.86035537719727 62.5 L 30.86035537719727 1 L 0.9999961853027344 1 M -3.814697265625e-06 0 L 31.86035537719727 0 L 31.86035537719727 63.5 L -3.814697265625e-06 63.5 L -3.814697265625e-06 0 Z" stroke="none" fill="#e53935"/>
    </g>
    <g id="Trazado_203078" data-name="Trazado 203078" transform="translate(-8888.6 -4165)" fill="none">
      <path d="M0,0H31.86V63.5H0Z" stroke="none"/>
      <path d="M 0.9999961853027344 1 L 0.9999961853027344 62.5 L 30.86035537719727 62.5 L 30.86035537719727 1 L 0.9999961853027344 1 M -3.814697265625e-06 0 L 31.86035537719727 0 L 31.86035537719727 63.5 L -3.814697265625e-06 63.5 L -3.814697265625e-06 0 Z" stroke="none" fill="#e53935"/>
    </g>
    <g id="Trazado_203079" data-name="Trazado 203079" transform="translate(-8826.6 -4227)" fill="none">
      <path d="M0,0H31.86V63.5H0Z" stroke="none"/>
      <path d="M 0.9999961853027344 1 L 0.9999961853027344 62.5 L 30.86035537719727 62.5 L 30.86035537719727 1 L 0.9999961853027344 1 M -3.814697265625e-06 0 L 31.86035537719727 0 L 31.86035537719727 63.5 L -3.814697265625e-06 63.5 L -3.814697265625e-06 0 Z" stroke="none" fill="#e53935"/>
    </g>
    <g id="Trazado_203080" data-name="Trazado 203080" transform="translate(-8826.6 -4165)" fill="none">
      <path d="M0,0H31.86V63.5H0Z" stroke="none"/>
      <path d="M 0.9999961853027344 1 L 0.9999961853027344 62.5 L 30.86035537719727 62.5 L 30.86035537719727 1 L 0.9999961853027344 1 M -3.814697265625e-06 0 L 31.86035537719727 0 L 31.86035537719727 63.5 L -3.814697265625e-06 63.5 L -3.814697265625e-06 0 Z" stroke="none" fill="#e53935"/>
    </g>
    <g id="Trazado_203081" data-name="Trazado 203081" transform="translate(-8764.6 -4227)" fill="none">
      <path d="M0,0H31.86V63.5H0Z" stroke="none"/>
      <path d="M 0.9999961853027344 1 L 0.9999961853027344 62.5 L 30.86035537719727 62.5 L 30.86035537719727 1 L 0.9999961853027344 1 M -3.814697265625e-06 0 L 31.86035537719727 0 L 31.86035537719727 63.5 L -3.814697265625e-06 63.5 L -3.814697265625e-06 0 Z" stroke="none" fill="#e53935"/>
    </g>
    <g id="Trazado_203082" data-name="Trazado 203082" transform="translate(-8764.6 -4165)" fill="none">
      <path d="M0,0H31.86V63.5H0Z" stroke="none"/>
      <path d="M 0.9999961853027344 1 L 0.9999961853027344 62.5 L 30.86035537719727 62.5 L 30.86035537719727 1 L 0.9999961853027344 1 M -3.814697265625e-06 0 L 31.86035537719727 0 L 31.86035537719727 63.5 L -3.814697265625e-06 63.5 L -3.814697265625e-06 0 Z" stroke="none" fill="#e53935"/>
    </g>
    <g id="Trazado_203083" data-name="Trazado 203083" transform="translate(-8640.6 -4227)" fill="none">
      <path d="M0,0H31.86V63.5H0Z" stroke="none"/>
      <path d="M 0.9999961853027344 1 L 0.9999961853027344 62.5 L 30.86035537719727 62.5 L 30.86035537719727 1 L 0.9999961853027344 1 M -3.814697265625e-06 0 L 31.86035537719727 0 L 31.86035537719727 63.5 L -3.814697265625e-06 63.5 L -3.814697265625e-06 0 Z" stroke="none" fill="#e53935"/>
    </g>
    <g id="Trazado_203084" data-name="Trazado 203084" transform="translate(-8640.6 -4165)" fill="none">
      <path d="M0,0H31.86V63.5H0Z" stroke="none"/>
      <path d="M 0.9999961853027344 1 L 0.9999961853027344 62.5 L 30.86035537719727 62.5 L 30.86035537719727 1 L 0.9999961853027344 1 M -3.814697265625e-06 0 L 31.86035537719727 0 L 31.86035537719727 63.5 L -3.814697265625e-06 63.5 L -3.814697265625e-06 0 Z" stroke="none" fill="#e53935"/>
    </g>
    <g id="Trazado_203085" data-name="Trazado 203085" transform="translate(-8702.6 -4227)" fill="none">
      <path d="M0,0H31.86V63.5H0Z" stroke="none"/>
      <path d="M 0.9999961853027344 1 L 0.9999961853027344 62.5 L 30.86035537719727 62.5 L 30.86035537719727 1 L 0.9999961853027344 1 M -3.814697265625e-06 0 L 31.86035537719727 0 L 31.86035537719727 63.5 L -3.814697265625e-06 63.5 L -3.814697265625e-06 0 Z" stroke="none" fill="#e53935"/>
    </g>
    <g id="Trazado_203086" data-name="Trazado 203086" transform="translate(-8702.6 -4165)" fill="none">
      <path d="M0,0H31.86V63.5H0Z" stroke="none"/>
      <path d="M 0.9999961853027344 1 L 0.9999961853027344 62.5 L 30.86035537719727 62.5 L 30.86035537719727 1 L 0.9999961853027344 1 M -3.814697265625e-06 0 L 31.86035537719727 0 L 31.86035537719727 63.5 L -3.814697265625e-06 63.5 L -3.814697265625e-06 0 Z" stroke="none" fill="#e53935"/>
    </g>
    <g id="Trazado_203087" data-name="Trazado 203087" transform="translate(-8578.6 -4227)" fill="none">
      <path d="M0,0H31.86V63.5H0Z" stroke="none"/>
      <path d="M 0.9999961853027344 1 L 0.9999961853027344 62.5 L 30.86035537719727 62.5 L 30.86035537719727 1 L 0.9999961853027344 1 M -3.814697265625e-06 0 L 31.86035537719727 0 L 31.86035537719727 63.5 L -3.814697265625e-06 63.5 L -3.814697265625e-06 0 Z" stroke="none" fill="#e53935"/>
    </g>
    <g id="Trazado_203088" data-name="Trazado 203088" transform="translate(-8578.6 -4165)" fill="none">
      <path d="M0,0H31.86V63.5H0Z" stroke="none"/>
      <path d="M 0.9999961853027344 1 L 0.9999961853027344 62.5 L 30.86035537719727 62.5 L 30.86035537719727 1 L 0.9999961853027344 1 M -3.814697265625e-06 0 L 31.86035537719727 0 L 31.86035537719727 63.5 L -3.814697265625e-06 63.5 L -3.814697265625e-06 0 Z" stroke="none" fill="#e53935"/>
    </g>
  </g>
</svg>
